<svg width="87" height="87" viewBox="0 0 87 87" fill="none" xmlns="http://www.w3.org/2000/svg">
<rect x="43.354" y="2.12132" width="57.8905" height="57.8905" rx="10.5" transform="rotate(45 43.354 2.12132)" stroke="#2E353F" stroke-width="3"/>
<path d="M33.7618 40.3497C33.7618 40.2431 33.7618 40.1554 33.7618 40.0677C33.7618 38.5888 33.7493 37.1131 33.7681 35.6342C33.7775 34.8917 33.9375 34.1742 34.2105 33.4786C34.4489 32.8739 34.7877 32.3318 35.1987 31.8368C35.6568 31.2854 36.2058 30.8342 36.827 30.4707C37.4043 30.1292 38.0286 29.9005 38.6843 29.7626C38.9416 29.7094 39.2082 29.6749 39.4686 29.6718C41.9722 29.653 44.4727 29.631 46.9763 29.6404C47.7167 29.6436 48.4383 29.8096 49.1285 30.0947C49.6587 30.3141 50.1418 30.6023 50.5936 30.9532C51.2054 31.4295 51.6917 32.0091 52.0933 32.6702C52.4415 33.2405 52.6548 33.864 52.8117 34.5063C52.865 34.7256 52.8933 34.9543 52.8964 35.1799C52.9152 36.8186 52.9246 38.4541 52.9403 40.0928C52.9403 40.1711 52.9403 40.2463 52.9403 40.3497C53.0784 40.3497 53.2039 40.3497 53.3262 40.3497C53.5992 40.3497 53.869 40.3497 54.1419 40.3497C54.5278 40.3497 54.9169 40.6787 54.9733 41.0578C54.9984 41.2207 55.011 41.3868 55.011 41.5528C55.0141 45.604 55.0141 49.6553 55.0172 53.7096C55.0172 54.1733 54.7537 54.5994 54.2706 54.7091C54.1859 54.7279 54.0949 54.7279 54.007 54.7279C47.9426 54.7279 41.8781 54.7248 35.8136 54.7216C34.7407 54.7216 33.6708 54.7216 32.5979 54.7216C32.1869 54.7216 31.7884 54.3864 31.7288 53.9634C31.71 53.8349 31.6912 53.7065 31.6912 53.578C31.6912 49.4955 31.688 45.4129 31.6975 41.3272C31.6975 40.851 31.8888 40.522 32.4034 40.3716C32.4567 40.3559 32.5163 40.3528 32.5696 40.3497C32.9618 40.3497 33.3477 40.3497 33.7618 40.3497ZM36.598 40.3371C41.1126 40.3371 45.6021 40.3371 50.0948 40.3371C50.0979 40.2776 50.1042 40.2337 50.1042 40.1868C50.1042 38.7236 50.1073 37.2635 50.101 35.8003C50.101 35.5653 50.0791 35.3209 50.0195 35.0953C49.9505 34.8321 49.8501 34.5689 49.7214 34.3277C49.5771 34.0582 49.4108 33.7888 49.2069 33.5601C48.821 33.1214 48.3379 32.83 47.7731 32.6452C47.3778 32.5136 46.9731 32.4728 46.5684 32.4728C44.6076 32.4603 42.6405 32.4634 40.6765 32.4697C40.2624 32.4697 39.8482 32.5042 39.4341 32.5355C38.9604 32.5731 38.54 32.7611 38.1415 33.0086C37.8309 33.2029 37.5517 33.4347 37.3446 33.7386C37.1721 33.9924 36.9807 34.2462 36.8646 34.5251C36.6701 34.9825 36.598 35.4744 36.598 35.9726C36.5948 37.3512 36.598 38.7298 36.598 40.1084C36.598 40.1836 36.598 40.2557 36.598 40.3371ZM47.2429 42.0761C47.2022 42.0635 47.1865 42.0573 47.1739 42.0573C46.6939 42.0573 46.2108 42.0573 45.7307 42.0541C45.6241 42.0541 45.6178 42.1262 45.6052 42.1983C45.4327 42.9972 45.2601 43.7993 45.0939 44.6014C45.0688 44.7267 45.0186 44.7675 44.8899 44.7675C44.2154 44.7612 43.5409 44.7643 42.8664 44.7643C42.8193 44.7643 42.7754 44.7612 42.7064 44.7549C42.904 43.8557 43.1017 42.969 43.2993 42.0698C43.2271 42.0667 43.1801 42.0604 43.133 42.0604C42.7032 42.0604 42.2765 42.0667 41.8467 42.0541C41.7055 42.051 41.6679 42.1105 41.6459 42.2265C41.4734 43.0223 41.2977 43.815 41.1283 44.6108C41.1032 44.7361 41.053 44.7675 40.9306 44.7675C40.3032 44.7612 39.6757 44.7675 39.0482 44.7612C38.9259 44.7612 38.8851 44.7988 38.8851 44.921C38.8914 45.3502 38.8945 45.7764 38.8851 46.2056C38.8819 46.356 38.9353 46.3905 39.0733 46.3873C39.5753 46.3811 40.0773 46.3842 40.5792 46.3873C40.6388 46.3873 40.6985 46.3873 40.7738 46.3873C40.6483 46.9952 40.5228 47.5748 40.4161 48.1576C40.3879 48.3111 40.322 48.3456 40.1777 48.3424C39.8106 48.333 39.4467 48.3456 39.0796 48.3362C38.9259 48.333 38.8851 48.3863 38.8882 48.5336C38.8976 48.9471 38.8976 49.3576 38.8882 49.7712C38.8851 49.9122 38.9227 49.9623 39.0702 49.9592C39.3808 49.9466 39.6945 49.956 40.0302 49.956C39.842 50.8584 39.6569 51.742 39.4686 52.6443C40.002 52.6443 40.5008 52.6474 41.0028 52.638C41.0342 52.638 41.0875 52.5723 41.0969 52.5284C41.2726 51.72 41.4483 50.9085 41.6146 50.097C41.6397 49.9748 41.693 49.9498 41.8028 49.9498C42.4773 49.9529 43.1519 49.9529 43.8264 49.956C44.0272 49.956 44.0272 49.9592 43.9864 50.1472C43.8515 50.7519 43.7166 51.3566 43.5817 51.9644C43.5346 52.1806 43.4875 52.3999 43.4374 52.6443C43.5095 52.6443 43.5597 52.6443 43.6099 52.6443C44.024 52.6443 44.435 52.6349 44.8491 52.6506C45.0154 52.6568 45.0594 52.591 45.0907 52.4501C45.257 51.6762 45.4358 50.9023 45.599 50.1284C45.6272 49.9905 45.6868 49.956 45.8186 49.956C46.4366 49.9592 47.0516 49.9529 47.6696 49.956C47.7826 49.956 47.8139 49.9247 47.8139 49.815C47.8077 49.3827 47.8077 48.9472 47.8139 48.5148C47.8171 48.3832 47.7731 48.3424 47.6445 48.3456C47.1488 48.3518 46.65 48.3487 46.1543 48.3456C46.0947 48.3456 46.0319 48.3393 45.966 48.3362C45.9692 48.2829 45.9692 48.2453 45.9755 48.2108C46.0915 47.6563 46.217 47.0986 46.3237 46.5409C46.3488 46.4061 46.4084 46.3748 46.5308 46.3779C46.9072 46.3842 47.2837 46.3717 47.6602 46.3842C47.792 46.3873 47.8171 46.3403 47.8171 46.2244C47.8108 45.8108 47.8139 45.4004 47.8139 44.9868C47.8139 44.7675 47.8139 44.7675 47.588 44.7706C47.29 44.7706 46.9951 44.7706 46.6657 44.7706C46.8602 43.8494 47.0516 42.9659 47.2429 42.0761Z" fill="#2E353F"/>
<path d="M41.9973 48.3144C42.0256 48.1577 42.0538 48.0074 42.0852 47.857C42.1761 47.4183 42.2703 46.9797 42.3581 46.5379C42.3801 46.4345 42.4146 46.3781 42.5401 46.3781C43.2209 46.3812 43.8985 46.3781 44.5793 46.3718C44.6986 46.3718 44.7456 46.3969 44.7174 46.5379C44.595 47.0925 44.4821 47.6502 44.3691 48.2047C44.3566 48.2737 44.3472 48.3332 44.2499 48.3332C43.5283 48.3301 42.8067 48.3301 42.0852 48.3301C42.0601 48.3301 42.0412 48.3238 41.9973 48.3144Z" fill="#2E353F"/>
</svg>
