<svg width="87" height="87" viewBox="0 0 87 87" fill="none" xmlns="http://www.w3.org/2000/svg">
<g clip-path="url(#clip0)">
<path d="M29.0916 45.947C29.0916 45.3285 29.0916 44.71 29.0916 44.0915C29.1295 43.9446 29.1826 43.7977 29.2054 43.6508C29.2889 43.1019 29.3268 42.5452 29.4407 42.0118C29.972 39.6073 31.0878 37.5508 33.0991 36.1127C35.0119 34.752 37.1143 34.1644 39.4217 34.8448C40.4388 35.1386 41.4331 35.5406 42.4274 35.8962C43.0195 36.1127 43.5963 36.1282 44.2035 35.8962C45.1447 35.5329 46.101 35.1695 47.065 34.8834C50.1238 33.9634 52.8639 34.5896 55.2396 36.7544C55.6039 37.0869 55.8999 37.5121 56.2566 37.9296C53.6077 39.6305 52.3325 41.9886 52.5451 45.1121C52.7576 48.2433 54.4274 50.3462 57.0916 51.7224C57.0916 51.761 57.0992 51.792 57.0916 51.8152C57.0081 52.0703 56.9246 52.3254 56.8259 52.5806C55.8392 55.2324 54.3971 57.5828 52.4312 59.5929C51.7102 60.3274 50.8449 60.8222 49.7974 60.915C48.8411 61.0001 47.953 60.7063 47.065 60.397C46.268 60.1187 45.4635 59.8249 44.6437 59.6625C43.3079 59.3997 42.0479 59.7862 40.7955 60.2501C39.9454 60.5671 39.0726 60.8995 38.1845 60.9923C37.1067 61.1006 36.2035 60.513 35.3914 59.8017C34.4578 58.9744 33.7215 57.9771 33.0081 56.9565C31.0119 54.0805 29.8126 50.8951 29.3117 47.4237C29.2358 46.9289 29.1675 46.4419 29.0916 45.947Z" fill="#2E353F"/>
<path d="M49.9646 26C50.1544 29.34 48.7426 31.8063 45.9722 33.4994C45.2436 33.9479 44.4162 34.0793 43.5737 34.118C43.1942 34.1334 43.0652 34.0097 43.0652 33.6154C43.088 30.8244 44.3859 28.7678 46.6022 27.2525C47.4599 26.6726 48.401 26.2706 49.4333 26.1082C49.5092 26.0928 49.5851 26.0309 49.661 26C49.7597 26 49.8659 26 49.9646 26Z" fill="#2E353F"/>
</g>
<rect x="43.0916" y="2.21287" width="57.8905" height="57.8905" rx="10.5" transform="rotate(45 43.0916 2.21287)" stroke="#2E353F" stroke-width="3"/>
<defs>
<clipPath id="clip0">
<rect width="28" height="35" fill="white" transform="translate(29.0916 26)"/>
</clipPath>
</defs>
</svg>
