<svg width="88" height="87" viewBox="0 0 88 87" fill="none" xmlns="http://www.w3.org/2000/svg">
<g clip-path="url(#clip0)">
<path d="M50.1674 55.9999C49.2842 55.8534 48.675 55.3134 48.1725 54.5959C48.0963 54.4802 47.8831 54.4031 47.7309 54.4031C46.0938 54.3954 44.4567 54.4108 42.8273 54.4185C42.4694 54.4185 42.1192 54.4108 41.7613 54.3877C41.2816 54.3568 41.0303 54.0945 41.0456 53.6702C41.0608 53.2537 41.2968 53.0377 41.7842 53.0377C43.6877 53.0299 45.5913 53.0222 47.4948 53.0454C47.8451 53.0454 48.0735 52.9682 48.2638 52.6442C48.6293 52.0348 49.1166 51.5488 49.8248 51.3791C50.9136 51.1168 52.0633 51.7879 52.4288 52.8679C52.8095 54.0019 52.3375 55.2131 51.2943 55.6991C50.9897 55.8379 50.6471 55.9074 50.3273 56.0077C50.2664 55.9999 50.2131 55.9999 50.1674 55.9999ZM51.1649 53.6317C51.1649 53.1302 50.7537 52.7214 50.2664 52.7291C49.7867 52.7368 49.3603 53.1688 49.3679 53.6471C49.3755 54.1177 49.8095 54.5419 50.2816 54.5497C50.7689 54.5497 51.1649 54.1331 51.1649 53.6317Z" fill="#2E353F"/>
<path d="M29 42.2686C29.0076 42.2609 29.0228 42.2532 29.0305 42.2455C29.4264 40.6949 30.0584 40.1626 31.6345 40.1163C31.8706 40.1086 31.9924 40.0315 32.1142 39.8386C33.0888 38.2032 34.0711 36.5677 35.0533 34.94C35.1447 34.7857 35.2589 34.6469 35.3807 34.5157C35.6015 34.2843 35.868 34.2535 36.1421 34.4155C36.4239 34.5852 36.5533 34.832 36.4619 35.1637C36.4162 35.318 36.3325 35.4723 36.2487 35.6112C35.2741 37.2466 34.3071 38.8897 33.3173 40.5175C33.1802 40.7489 33.1802 40.934 33.2487 41.1963C33.3858 41.6977 33.5457 42.2223 33.5228 42.7315C33.4695 43.85 32.4797 44.7063 31.3452 44.7295C30.2411 44.7372 29.2665 43.9195 29.0761 42.824C29.0609 42.716 29.0228 42.608 29 42.4923C29 42.4229 29 42.3457 29 42.2686ZM30.4391 42.392C30.4315 42.9012 30.8122 43.3177 31.2995 43.3255C31.7716 43.3332 32.1904 42.9166 32.198 42.4229C32.2056 41.9292 31.8096 41.4972 31.3299 41.4895C30.835 41.4895 30.4467 41.8829 30.4391 42.392Z" fill="#2E353F"/>
<path d="M58.9999 42.7313C58.9695 42.847 58.939 42.9705 58.9085 43.0862C58.7106 43.927 58.208 44.467 57.3933 44.6985C57.1116 44.7756 56.8223 44.8759 56.5405 44.8605C56.1065 44.8373 55.9238 45.0765 55.7258 45.4005C54.8197 46.9279 53.8984 48.4476 52.9847 49.9751C52.8857 50.1371 52.7791 50.2991 52.6497 50.4379C52.4289 50.6925 52.1471 50.7311 51.8578 50.5691C51.5608 50.3993 51.4314 50.1293 51.5304 49.7899C51.5837 49.6125 51.6827 49.4428 51.7816 49.2731C52.741 47.6608 53.708 46.0485 54.6827 44.4362C54.8121 44.2202 54.8426 44.0428 54.7436 43.7959C54.6217 43.5182 54.5456 43.2173 54.4923 42.9165C54.2639 41.6205 55.0481 40.5019 56.3273 40.2859C57.5304 40.0776 58.703 40.9416 58.9162 42.1759C58.9314 42.2839 58.9695 42.3919 58.9923 42.5076C58.9999 42.577 58.9999 42.6542 58.9999 42.7313ZM57.5608 42.5616C57.5608 42.0679 57.1421 41.6436 56.67 41.6513C56.1979 41.659 55.7639 42.0988 55.7639 42.5693C55.7639 43.0322 56.2131 43.4796 56.67 43.4873C57.1421 43.495 57.5608 43.0553 57.5608 42.5616Z" fill="#2E353F"/>
<path d="M50.472 29C50.6014 29.0386 50.7309 29.0694 50.8603 29.108C52.2537 29.4706 52.9542 30.8437 52.3298 32.2477C52.0405 32.8957 52.1471 33.3277 52.4745 33.8754C53.3045 35.2563 54.0811 36.668 54.873 38.072C54.9948 38.2957 55.109 38.5271 55.1776 38.774C55.2689 39.0903 55.1623 39.3603 54.8578 39.5146C54.576 39.6689 54.3095 39.6149 54.0963 39.3834C53.9517 39.2214 53.8298 39.0363 53.7232 38.8511C52.8095 37.2543 51.8882 35.6574 50.9897 34.0529C50.8298 33.7674 50.6395 33.644 50.3121 33.6209C48.4618 33.4743 47.4796 31.7771 48.3324 30.2266C48.6826 29.5786 49.2461 29.2083 49.9542 29.0771C50.0532 29.0617 50.1446 29.0309 50.2435 29C50.3197 29 50.3958 29 50.472 29ZM50.3045 32.2477C50.8146 32.2477 51.1953 31.862 51.1877 31.3451C51.1801 30.8437 50.7765 30.4194 50.3045 30.4194C49.84 30.4194 49.406 30.8591 49.406 31.3374C49.3984 31.8311 49.8171 32.2477 50.3045 32.2477Z" fill="#2E353F"/>
<path d="M37.5812 55.9307C35.8604 55.9307 34.7563 54.0715 35.6091 52.5209C35.8604 52.0658 35.8147 51.7649 35.5711 51.3561C34.6878 49.8595 33.8426 48.3398 32.9822 46.8278C32.9061 46.6967 32.8299 46.5655 32.7614 46.4189C32.5787 46.0178 32.6853 45.6475 33.0279 45.4547C33.3629 45.2695 33.7056 45.3466 33.934 45.7401C34.764 47.1518 35.5711 48.5789 36.3858 49.9984C36.4467 50.0987 36.5076 50.1912 36.5533 50.2992C36.835 50.9781 37.2462 51.3407 38.0533 51.4024C39.165 51.4795 39.9721 52.6907 39.8655 53.8324C39.7589 55.0127 38.7538 55.9307 37.5812 55.9307ZM37.5736 54.5421C38.0457 54.5498 38.5101 54.0869 38.5025 53.6164C38.4949 53.1458 38.0761 52.7292 37.5964 52.7215C37.1091 52.7138 36.698 53.1149 36.698 53.6164C36.6827 54.0869 37.1167 54.5344 37.5736 54.5421Z" fill="#2E353F"/>
<path d="M42.9722 32.1473C42.0357 32.1473 41.0915 32.155 40.155 32.1396C39.8809 32.1319 39.7134 32.2167 39.5763 32.4559C39.1118 33.2273 38.4722 33.721 37.5357 33.7056C36.3936 33.6824 35.5103 32.9727 35.3276 31.9081C35.1144 30.7047 35.6321 29.7019 36.6753 29.2699C37.688 28.8533 38.8682 29.2004 39.4316 30.1801C39.7134 30.6661 40.0332 30.7819 40.5509 30.7664C42.226 30.7356 43.9012 30.751 45.5763 30.7587C45.8276 30.7587 46.0865 30.7819 46.3301 30.8359C46.6423 30.9053 46.7946 31.1599 46.7946 31.4607C46.7946 31.7693 46.6271 32.0007 46.3149 32.0779C46.155 32.1164 45.9875 32.1319 45.8276 32.1396C44.8758 32.155 43.924 32.1473 42.9722 32.1473ZM38.4037 31.4144C38.4037 30.8899 38.0763 30.5427 37.5585 30.5273C37.0332 30.5196 36.6601 30.8744 36.6601 31.399C36.6601 31.9159 37.0484 32.3093 37.5509 32.3016C38.0458 32.2939 38.3961 31.9236 38.4037 31.4144Z" fill="#2E353F"/>
<path d="M50.7766 42.8317C50.6167 46.4111 47.67 49.3734 44.1598 49.4737C43.9999 49.4814 43.8248 49.4659 43.6725 49.4119C43.3908 49.3117 43.2461 49.0957 43.2537 48.7948C43.2613 48.4939 43.4212 48.2779 43.7258 48.2239C44.0989 48.1545 44.4796 48.1314 44.8527 48.0619C47.4568 47.6068 49.3832 45.3851 49.4821 42.7159C49.4821 42.6619 49.4821 42.6157 49.4897 42.5617C49.5354 42.1065 49.7639 41.8365 50.0913 41.8519C50.4339 41.8674 50.7918 42.2839 50.7918 42.6774C50.7842 42.7237 50.7766 42.7777 50.7766 42.8317Z" fill="#2E353F"/>
<path d="M37.0102 42.091C37.0559 39.0825 39.5914 36.1202 42.6219 35.6419C43.033 35.5802 43.4518 35.5416 43.8706 35.5339C44.2513 35.5262 44.4569 35.7345 44.495 36.0739C44.533 36.4365 44.3655 36.6988 44 36.7836C43.7945 36.8376 43.5737 36.8453 43.3605 36.8608C40.863 37.0228 38.6396 39.1596 38.3655 41.6667C38.3351 41.9445 38.3046 42.2299 38.2513 42.5076C38.1676 42.955 37.9239 43.171 37.5737 43.1325C37.2539 43.1016 37.0483 42.8393 37.0178 42.415C37.0026 42.3302 37.0102 42.253 37.0102 42.091Z" fill="#2E353F"/>
<path d="M43.8554 40.2474C45.1194 40.2396 46.1092 41.2039 46.1168 42.4459C46.1244 43.7111 45.165 44.7139 43.9315 44.7294C42.6524 44.7448 41.6777 43.7728 41.6777 42.4845C41.6777 41.2271 42.6219 40.2551 43.8554 40.2474ZM44.8072 42.4768C44.792 41.9599 44.3275 41.4971 43.8554 41.5202C43.3681 41.5434 42.9189 42.0448 42.9417 42.5308C42.9645 43.0168 43.4214 43.4642 43.8859 43.4642C44.3732 43.4565 44.8224 42.9859 44.8072 42.4768Z" fill="#2E353F"/>
<path d="M44.2132 47.1287C44.1142 47.1287 44.0076 47.1287 43.9086 47.1287C43.5051 47.1132 43.2614 46.8972 43.2538 46.5347C43.2386 46.203 43.5051 45.9407 43.8782 45.879C44.2741 45.8095 44.6853 45.7632 45.0584 45.6244C46.3376 45.1461 46.9771 44.151 47.198 42.8241C47.2208 42.6852 47.236 42.5464 47.2665 42.4075C47.3502 42.0141 47.5711 41.8212 47.9137 41.8444C48.2716 41.8675 48.4848 42.099 48.4924 42.5232C48.5228 43.4952 48.2259 44.367 47.6929 45.1615C46.8553 46.3804 45.5609 47.1132 44.2132 47.1287Z" fill="#2E353F"/>
<path d="M43.5051 37.8328C43.5964 37.8328 43.6802 37.8251 43.7716 37.8328C44.2665 37.8636 44.4797 38.0411 44.4949 38.4422C44.5101 38.8279 44.2969 39.0593 43.8172 39.1056C42.5381 39.2368 41.5025 39.7691 40.9238 40.9879C40.7411 41.3736 40.6878 41.8211 40.5812 42.2376C40.5507 42.3611 40.5431 42.4922 40.5127 42.6156C40.4137 42.9473 40.2233 43.1556 39.8502 43.1171C39.5228 43.0862 39.2563 42.8316 39.2944 42.4613C39.3553 41.8673 39.4238 41.2425 39.6447 40.7025C40.3452 38.9822 41.6777 38.0565 43.5051 37.8328Z" fill="#2E353F"/>
</g>
<rect x="43.9456" y="2.12132" width="57.8905" height="57.8905" rx="10.5" transform="rotate(45 43.9456 2.12132)" stroke="#2E353F" stroke-width="3"/>
<defs>
<clipPath id="clip0">
<rect width="30" height="27" fill="white" transform="translate(29 29)"/>
</clipPath>
</defs>
</svg>
