<svg width="87" height="87" viewBox="0 0 87 87" fill="none" xmlns="http://www.w3.org/2000/svg">
<g clip-path="url(#clip0)">
<path d="M26 33.6236C26.2435 32.8474 26.563 32.1332 27.2935 31.6985C28.2978 31.093 29.5304 31.1707 30.413 31.9469C31.2957 32.7387 31.5848 33.9652 31.1435 35.0519C31.0522 35.2693 30.9304 35.4556 30.7783 35.7506C33.0304 38.483 35.313 41.2309 37.55 43.9323C38.463 43.6839 39.3 43.451 40.2587 43.2026C40.3652 42.6437 40.5174 41.9761 40.5783 41.293C40.5935 41.0757 40.4413 40.7652 40.2739 40.6255C39.2543 39.7871 38.8891 38.6227 39.3761 37.4583C39.8326 36.356 41.0196 35.735 42.1761 35.9679C43.2565 36.1853 44.0935 37.1789 44.1543 38.3122C44.2304 39.6008 43.5457 40.5323 42.2674 40.967C42.0391 41.0446 41.7804 41.3241 41.7196 41.557C41.5522 42.178 41.4913 42.8145 41.3848 43.4821C41.9174 43.7926 42.4348 44.0876 42.9826 44.3981C46.513 41.2154 50.0435 38.0328 53.513 34.9122C53.3304 34.167 53.0717 33.515 52.9957 32.8474C52.813 31.1241 53.8935 29.4474 55.4913 28.8108C55.75 28.7177 55.9935 28.609 56.2522 28.5159C56.7087 28.5159 57.1652 28.5159 57.6217 28.5159C59.4326 29.0282 60.5739 30.1926 60.9696 32.0866C60.9696 32.4437 60.9696 32.8163 60.9696 33.1734C60.6957 33.7944 60.513 34.493 60.1174 35.0364C58.9304 36.6976 56.6935 37.1168 54.9435 36.0921C54.7457 35.9834 54.563 35.8592 54.3348 35.7195C51.6261 38.157 48.9326 40.5944 46.2239 43.0163C45.5087 43.6684 44.763 44.3049 44.063 44.9725C43.9109 45.1122 43.8043 45.4848 43.8804 45.6556C44.5196 46.9597 44.55 48.2793 44.0326 49.7232C45.4935 50.6547 46.9543 51.6017 48.4152 52.5487C50.0739 50.9031 52.4478 50.4839 54.3652 52.2848C55.8261 53.651 56.0239 55.9177 54.913 57.5944C53.8174 59.2245 51.7022 59.83 49.9217 59.0227C47.9435 58.1223 47.1826 56.1661 47.8217 53.5579C46.3609 52.6264 44.8848 51.6793 43.3935 50.7168C42.1609 52.1296 40.6391 52.5487 38.8587 52.2227C38.25 53.7597 37.6413 55.2656 37.0174 56.8181C37.8848 57.5323 38.4174 58.4328 38.3413 59.6127C38.2348 61.1496 37.2913 61.988 35.9674 62.5003C35.5565 62.5003 35.1609 62.5003 34.75 62.5003C34.5674 62.4227 34.4 62.3296 34.2174 62.2519C33.0609 61.7706 32.2696 60.5286 32.3457 59.3177C32.4217 57.998 33.2739 56.8492 34.4913 56.5232C34.9478 56.399 35.4348 56.4145 35.9522 56.3679C36.5457 54.862 37.1543 53.3405 37.7022 51.9743C36.9717 51.0894 36.3174 50.2821 35.6022 49.4282C34.3543 49.6921 32.9848 49.9716 31.6457 50.3131C31.4478 50.3597 31.25 50.6547 31.1739 50.8875C30.7783 51.9588 30.0022 52.5332 28.9217 52.4711C27.963 52.409 27.1717 51.7259 26.9891 50.7944C26.7761 49.7853 27.187 48.8382 28.0391 48.357C28.9522 47.8446 29.9565 48.0309 30.7326 48.8382C30.8696 48.9935 31.0978 49.2108 31.25 49.1798C32.6804 48.9003 34.0957 48.5743 35.2522 48.3259C35.7239 46.9752 36.1043 45.8574 36.5304 44.6465C34.613 42.3177 32.5739 39.8802 30.5652 37.4273C30.0935 36.8529 29.6674 36.3405 28.8304 36.7442C28.663 36.8218 28.4348 36.7597 28.237 36.7287C27.0196 36.4647 26.35 35.5953 26 34.3999C26 34.136 26 33.8876 26 33.6236ZM36.7891 47.7825C36.7739 49.6766 38.1891 51.1515 40.0152 51.167C41.8413 51.1825 43.3174 49.7076 43.3326 47.8602C43.3478 46.0282 41.8413 44.4912 40.0457 44.5067C38.2652 44.5067 36.8043 45.9816 36.7891 47.7825Z" fill="#2E353F"/>
</g>
<rect x="43.5" y="2.21287" width="57.8905" height="57.8905" rx="10.5" transform="rotate(45 43.5 2.21287)" stroke="#2E353F" stroke-width="3"/>
<defs>
<clipPath id="clip0">
<rect width="35" height="34" fill="white" transform="translate(26 28.5)"/>
</clipPath>
</defs>
</svg>
