<svg width="87" height="87" viewBox="0 0 87 87" fill="none" xmlns="http://www.w3.org/2000/svg">
<rect x="43.0916" y="2.21287" width="57.8905" height="57.8905" rx="10.5" transform="rotate(45 43.0916 2.21287)" stroke="#2E353F" stroke-width="3"/>
<g clip-path="url(#clip0)">
<path d="M43.5852 25.1477C45.1646 25.7043 46.665 26.4001 47.5731 27.9307C47.7508 28.2289 48.0075 28.1096 48.2839 28.05C52.8049 27.1554 56.1611 30.3758 55.4504 34.9478C55.3912 35.3851 55.5096 35.6038 55.8452 35.8225C57.9774 37.2935 58.8856 39.3012 58.4315 41.8854C58.3328 42.4023 58.5697 42.4221 58.9448 42.4221C60.1688 42.4023 61.3731 42.4221 62.5972 42.4221C62.9328 42.4221 63.3276 42.283 63.3276 42.8992C63.3276 43.4956 62.9525 43.3962 62.5972 43.3962C59.4779 43.3962 56.3586 43.4161 53.2195 43.3763C52.489 43.3763 52.2719 43.5155 52.2126 44.3305C52.1139 45.5629 52.5285 46.3183 53.6538 46.7557C53.95 46.8749 54.2066 47.0936 54.5225 47.2327C55.5294 47.6303 56.0229 48.3261 55.786 49.4393C55.6676 49.976 55.9242 50.2344 56.4178 50.4928C57.4641 51.0295 57.8787 52.1626 57.5431 53.2758C57.2667 54.2101 56.2993 54.9257 55.3122 54.9257C54.3251 54.9257 53.3379 54.1902 53.0813 53.2758C52.7457 52.1427 53.18 51.0693 54.2066 50.4729C55.0753 49.9561 55.1148 48.7435 54.2658 48.2267C54.0684 48.1074 53.871 47.9682 53.6736 47.8887C51.9165 47.2129 50.8307 46.1195 51.3045 44.0522C51.4032 43.595 51.1663 43.4359 50.7122 43.4359C48.5405 43.4558 46.3688 43.4558 44.1972 43.4359C43.6641 43.4359 43.5062 43.6149 43.5457 44.1317C43.5654 44.4299 43.5457 44.728 43.5457 45.0262C43.5654 45.3642 43.3877 45.4834 43.0719 45.4834C42.756 45.4834 42.6178 45.4039 42.5783 45.0461C42.5388 44.5293 42.8547 43.7938 42.4204 43.5552C41.9663 43.2968 41.2753 43.4558 40.683 43.4558C38.9654 43.4558 37.2676 43.4757 35.55 43.4359C34.9774 43.4161 34.7405 43.6148 34.859 44.1714C35.3131 46.1593 34.2667 47.1731 32.5886 47.8887C32.0358 48.1273 31.2264 48.2664 31.3053 49.2604C31.3448 49.8567 31.3843 50.2543 32.0161 50.5525C33.0032 51.0097 33.398 52.1825 33.0822 53.2758C32.8058 54.23 31.8779 54.9257 30.871 54.9456C29.8444 54.9655 28.8573 54.2101 28.5809 53.2361C28.3045 52.1825 28.6796 51.0494 29.6272 50.5922C30.2985 50.2742 30.4564 49.8169 30.338 49.2007C30.18 48.3062 30.5156 47.7695 31.3448 47.4315C31.7002 47.2924 32.0161 46.9743 32.3714 46.855C33.6744 46.3978 34.0298 45.5033 33.8916 44.1913C33.8324 43.5751 33.6942 43.4359 33.1019 43.4359C29.9431 43.4558 26.7843 43.4558 23.6255 43.4359C23.3689 43.4359 23.053 43.5552 22.8753 43.3167C22.7568 43.1576 22.7963 42.8793 22.8161 42.6607C22.8555 42.4023 23.1122 42.4619 23.2899 42.4619C24.2375 42.4619 25.2049 42.442 26.1525 42.4619C26.6264 42.4818 26.8435 42.4221 26.7448 41.8258C26.35 39.2416 27.2779 37.214 29.4495 35.8026C29.8839 35.5243 29.7654 35.246 29.7062 34.8882C29.1731 30.3559 32.5096 27.1952 36.9912 28.0698C37.2478 28.1096 37.5045 28.2686 37.7019 27.9506C38.6495 26.3802 40.1697 25.6645 41.8083 25.1477C42.4006 25.1477 42.9929 25.1477 43.5852 25.1477Z" fill="#233952"/>
<path d="M65.8942 42.4619C65.9534 42.442 66.0324 42.442 66.0916 42.4221C66.0916 42.7601 66.0916 43.0781 66.0916 43.416C65.6376 43.3167 65.144 43.6546 64.7491 43.2173C65.1045 42.939 65.6376 42.9191 65.8942 42.4619Z" fill="#326CA8"/>
<path d="M20.0916 42.4419C20.1705 42.4419 20.2298 42.4618 20.3087 42.4618C20.5456 42.7599 20.5654 43.078 20.3087 43.3762C20.2298 43.3961 20.1705 43.4159 20.0916 43.4358C20.0916 43.0979 20.0916 42.7798 20.0916 42.4419Z" fill="#5C8BB9"/>
<path d="M39.1233 49.0814C39.4392 50.1548 38.7679 50.4928 38.2941 50.9102C37.5834 51.5463 36.8134 52.1029 37.0306 53.2758C37.0898 53.6336 37.1688 53.8324 37.5241 54.0312C38.6889 54.6474 39.1233 55.7208 38.8074 56.834C38.5113 57.8279 37.5439 58.5436 36.5173 58.5237C35.4709 58.5038 34.543 57.7683 34.3061 56.7346C34.0297 55.5618 34.4443 54.5878 35.6683 53.9914C36.1619 53.7529 36.1619 53.395 36.1027 53.0372C35.925 52.0035 36.3593 51.2879 37.149 50.6717C37.7413 50.1946 38.4915 49.797 38.3138 48.7832C38.2546 48.3857 38.6297 48.4453 38.8864 48.4652C39.4589 48.5049 39.0838 49.0218 39.1233 49.0814Z" fill="#233952"/>
<path d="M47.2967 55.9196C47.2967 55.2438 47.6915 54.548 48.5009 54.0709C49.2512 53.6336 49.4091 52.4011 48.7971 51.765C48.4022 51.3675 48.0271 50.9301 47.5533 50.6518C46.8031 50.1946 46.9216 49.4989 46.9413 48.823C46.9413 48.5049 47.119 48.4453 47.3756 48.4453C47.6125 48.4453 47.9087 48.4652 47.8692 48.7634C47.6915 49.8964 48.6194 50.294 49.2512 50.8506C49.8829 51.3873 50.2185 51.9638 50.0803 52.7987C49.9816 53.4348 50.1396 53.8523 50.8306 54.1703C51.8572 54.6474 52.2125 55.8998 51.8177 56.9931C51.4426 58.0466 50.2975 58.7026 49.2117 58.484C48.0864 58.2454 47.3164 57.331 47.2967 55.9196Z" fill="#233952"/>
<path d="M43.585 61.1478C43.2494 61.1478 42.9138 61.1478 42.5781 61.1478C41.4923 60.8297 40.821 60.134 40.7421 58.9611C40.6828 57.8877 41.1764 57.0925 42.1438 56.6751C42.5781 56.4763 42.5979 56.198 42.5979 55.8203C42.5979 54.2897 42.5781 52.7789 42.5979 51.2483C42.5979 50.97 42.4399 50.5525 42.9927 50.5326C43.5455 50.5127 43.5455 50.8308 43.5455 51.2284C43.5455 52.759 43.5455 54.2698 43.5455 55.8004C43.5455 56.1781 43.5455 56.4564 43.9799 56.6552C45.0065 57.0925 45.4605 57.9076 45.3816 59.0406C45.3026 60.1936 44.6314 60.8297 43.585 61.1478Z" fill="#233952"/>
<path d="M20.3086 43.3961C20.3086 43.0979 20.3086 42.7798 20.3086 42.4817C20.5258 42.4817 20.7627 42.4618 20.9798 42.4618C21.2957 42.4419 21.5524 42.4618 21.5524 42.8991C21.5524 43.3166 21.3944 43.4955 20.9798 43.4557C20.7627 43.3961 20.5258 43.3961 20.3086 43.3961Z" fill="#233952"/>
<path d="M43.0324 47.4115C42.5784 47.4712 42.5784 47.1929 42.5784 46.8748C42.5784 46.5369 42.7363 46.4375 43.0522 46.4375C43.4273 46.4375 43.5457 46.5965 43.5655 46.9543C43.5852 47.3718 43.3681 47.4513 43.0324 47.4115Z" fill="#233952"/>
<path d="M65.8941 42.4619C66.0126 43.4956 65.2624 43.1776 64.7491 43.2173C64.4924 42.0246 65.3808 42.5216 65.8941 42.4619Z" fill="#233952"/>
<path d="M38.7285 45.4636C38.3929 45.5034 38.235 45.404 38.235 45.0461C38.235 44.6883 38.314 44.4895 38.7285 44.5094C39.1037 44.5293 39.2418 44.6883 39.2221 45.066C39.2221 45.4238 39.0049 45.4835 38.7285 45.4636Z" fill="#233952"/>
<path d="M47.9087 44.9467C47.9482 45.2846 47.8297 45.4635 47.4743 45.4635C47.1387 45.4635 46.9018 45.4437 46.9216 45.0063C46.9413 44.7082 46.961 44.4895 47.3362 44.4895C47.652 44.5094 47.9482 44.5491 47.9087 44.9467Z" fill="#233952"/>
<path d="M39.2221 47.014C39.2616 47.3718 39.1037 47.5507 38.7285 47.5507C38.4127 47.5507 38.235 47.4712 38.235 47.1134C38.2547 46.8351 38.2152 46.5767 38.6101 46.5767C38.9062 46.5767 39.2419 46.5171 39.2221 47.014Z" fill="#233952"/>
<path d="M47.3955 46.5768C47.7113 46.5569 47.9088 46.6364 47.9088 46.9943C47.9088 47.3719 47.7706 47.531 47.3955 47.5509C46.9809 47.5707 46.9216 47.3521 46.9216 46.9943C46.9216 46.6364 47.0993 46.537 47.3955 46.5768Z" fill="#233952"/>
<path d="M43.5457 48.9621C43.5852 49.3994 43.368 49.5187 43.0324 49.5187C42.6968 49.5187 42.598 49.3596 42.5783 49.0416C42.5586 48.644 42.7165 48.5048 43.0916 48.5446C43.3877 48.5844 43.6246 48.6241 43.5457 48.9621Z" fill="#233952"/>
<path d="M44.3156 42.442C44.8092 40.2752 44.8092 38.2079 43.5852 36.4188C42.7955 35.2658 42.4599 34.3912 43.289 33.0991C43.8616 32.2045 43.7036 31.0516 43.4865 29.998C43.4272 29.7197 43.3483 29.4017 42.9139 29.5607C42.598 29.68 42.4599 29.7992 42.5586 30.1968C42.8152 31.3299 42.6968 32.4232 42.144 33.4768C41.8873 33.9539 41.6702 34.2123 41.1174 33.7551C40.7817 33.4569 40.3277 33.2979 39.8933 33.119C39.6367 33.0196 39.3208 32.7413 39.1234 33.278C38.9259 33.8147 39.2418 33.9141 39.5972 34.0334C40.5646 34.4111 41.374 35.0273 42.0453 35.8224C43.5062 37.5121 43.9208 39.4801 43.5062 41.6667C43.4075 42.2233 43.1706 42.4817 42.5191 42.4619C40.2092 42.4221 37.9191 42.4221 35.6092 42.4619C35.0564 42.4619 34.7998 42.3227 34.6813 41.7462C34.4247 40.4939 33.6942 39.5198 32.6083 38.844C32.332 38.6651 32.1148 38.5259 31.8976 38.9434C31.7199 39.2614 31.7397 39.4403 32.0753 39.659C33.0624 40.2752 33.6744 41.1698 33.8521 42.442C31.9963 42.442 30.1998 42.442 28.4032 42.442C28.0478 42.442 27.8899 42.3028 27.7912 41.9649C26.8435 38.8639 30.0023 35.2857 33.1611 35.9417C34.3259 36.1803 35.1354 36.876 35.7079 37.9494C36.3199 39.1422 37.2676 39.8975 38.689 39.818C38.9852 39.7981 39.4195 39.8975 39.3405 39.3409C39.2813 38.9235 39.0641 38.8241 38.6693 38.8639C37.6822 38.9632 37.0504 38.4066 36.6161 37.6115C36.3002 37.035 35.9251 36.4983 35.471 35.9815C36.1028 35.4845 36.7148 35.0074 37.3268 34.5105C37.544 34.3316 37.8204 34.1526 37.465 33.7948C37.1689 33.4967 36.9714 33.4569 36.6556 33.775C36.3989 34.0533 36.0633 34.2918 35.7474 34.5303C35.0564 35.0869 34.3457 35.4447 33.4178 35.0273C32.8453 34.7689 32.174 34.8484 31.5817 35.0074C31.0092 35.1664 30.7723 35.0074 30.6736 34.3912C30.3577 32.5624 31.3448 30.4751 33.0822 29.4812C34.938 28.4276 37.1689 28.6662 38.7483 30.1173C38.9259 30.2763 39.0839 30.4354 39.2221 30.6143C39.4787 30.9124 39.6564 30.7335 39.8933 30.5745C40.1895 30.3757 40.1895 30.1769 39.9328 29.9384C39.6762 29.68 39.459 29.342 39.1431 29.183C38.1955 28.7059 38.5508 28.2288 39.0839 27.712C40.4856 26.3205 42.144 25.7838 44.0393 26.3801C45.8753 26.9566 46.9809 28.2885 47.435 30.1769C47.5337 30.5944 47.4152 30.8528 47.0796 31.0914C46.3294 31.648 45.9345 32.4431 45.7766 33.3575C45.7371 33.5563 45.6186 33.8743 45.9938 33.8743C46.2504 33.8743 46.6058 34.0334 46.7045 33.596C46.7637 33.3774 46.8032 33.1388 46.8822 32.9202C47.2573 31.966 47.4547 31.9263 48.1852 32.5425C48.3629 32.6816 48.5603 32.8407 48.7774 32.8804C48.9946 32.9202 49.3105 33.2184 49.4487 32.8407C49.5277 32.5822 49.6461 32.2244 49.192 32.0058C48.7972 31.8269 48.0272 29.5607 48.1852 29.2029C48.2641 29.0041 48.4813 28.9644 48.6787 28.9246C51.8968 28.0698 55.1345 31.1112 54.6212 34.4309C54.5225 35.0869 54.2066 35.1068 53.6736 35.0074C51.6796 34.6695 49.9817 35.2658 48.5603 36.6971C48.3431 36.9158 47.7706 37.1344 48.3036 37.6314C48.7774 38.0687 48.9749 37.6314 49.2315 37.373C50.7912 35.8423 52.9036 35.4249 54.7594 36.2995C56.635 37.1941 57.7208 39.1223 57.5826 41.2294C57.5234 42.1041 57.2667 42.5215 56.2796 42.442C54.9766 42.3426 53.6538 42.4221 52.2916 42.4221C52.4298 41.1896 53.0221 40.315 53.95 39.6789C54.2659 39.4602 54.4633 39.3409 54.2264 38.9235C53.95 38.4265 53.6933 38.7048 53.4367 38.8837C52.3903 39.5994 51.6796 40.5734 51.4032 41.8258C51.3242 42.1438 51.3045 42.4619 50.8307 42.4619C48.7182 42.4221 46.5465 42.442 44.3156 42.442Z" fill="#FEFEFE"/>
<path d="M30.9104 51.1885C31.6606 51.2084 32.2924 51.8445 32.2924 52.58C32.2924 53.2757 31.6014 53.9715 30.8906 53.9715C30.1009 53.9715 29.4297 53.2956 29.4692 52.5005C29.5087 51.7451 30.1404 51.1686 30.9104 51.1885Z" fill="#FBFCFD"/>
<path d="M55.3515 51.1887C56.1215 51.1887 56.7137 51.7851 56.7137 52.5604C56.7137 53.3157 56.082 53.9519 55.3515 53.9717C54.5618 53.9916 53.93 53.3158 53.9498 52.5206C53.9498 51.7255 54.5618 51.1689 55.3515 51.1887Z" fill="#FCFDFD"/>
<path d="M36.4976 54.7468C37.2675 54.727 37.8795 55.3034 37.8993 56.0986C37.919 56.8738 37.3662 57.51 36.616 57.5497C35.8461 57.5895 35.1353 56.9335 35.1353 56.1582C35.1156 55.4227 35.7671 54.7667 36.4976 54.7468Z" fill="#FCFCFD"/>
<path d="M49.6659 57.5496C48.9354 57.5695 48.2642 56.9334 48.2247 56.2177C48.1852 55.4822 48.7972 54.8064 49.5475 54.7666C50.3174 54.7269 51.0479 55.3828 51.0479 56.1581C51.0479 56.8539 50.3964 57.5297 49.6659 57.5496Z" fill="#FCFDFD"/>
<path d="M44.4538 58.8418C44.4538 59.5972 43.8417 60.2134 43.0915 60.2134C42.361 60.2134 41.6898 59.5773 41.6701 58.8617C41.6503 58.1262 42.4005 57.3907 43.1113 57.4106C43.822 57.4304 44.4735 58.1262 44.4538 58.8418Z" fill="#FDFDFD"/>
</g>
<defs>
<clipPath id="clip0">
<rect width="46" height="36" fill="white" transform="translate(20.0916 25.1477)"/>
</clipPath>
</defs>
</svg>
