<svg width="87" height="87" viewBox="0 0 87 87" fill="none" xmlns="http://www.w3.org/2000/svg">
<g clip-path="url(#clip0)">
<path d="M39.5126 61C39.1052 60.8612 38.7223 60.7026 38.4278 60.3654C38.0695 59.9589 37.9419 59.478 37.9419 58.9476C37.937 57.6735 37.9222 56.4043 37.9222 55.1302C37.9222 54.8873 37.8486 54.8327 37.6179 54.8278C37.0633 54.8179 36.4988 54.8327 35.9589 54.7336C35.2324 54.6047 34.6189 53.8115 34.56 53.0678C34.5403 52.8299 34.5305 52.5919 34.5305 52.349C34.5305 48.4721 34.5305 44.6002 34.5305 40.7233C34.5305 40.6192 34.5305 40.5102 34.5305 40.3862C40.1801 40.3862 45.8052 40.3862 51.4548 40.3862C51.4597 40.4705 51.4695 40.5548 51.4695 40.644C51.4695 44.6498 51.4695 48.6605 51.4695 52.6663C51.4695 53.5537 51.121 54.2477 50.3161 54.6295C50.0265 54.7683 49.673 54.798 49.3442 54.8278C49.0104 54.8625 48.6717 54.8476 48.338 54.8327C48.1318 54.8228 48.0729 54.8922 48.0729 55.0955C48.0827 56.3696 48.0778 57.6387 48.0778 58.9129C48.0778 59.4582 47.9404 59.954 47.5722 60.3704C47.2777 60.7075 46.8851 60.8612 46.4826 60.9951C46.2715 60.9951 46.0555 60.9951 45.8445 60.9951C45.5843 60.8761 45.3045 60.7918 45.0738 60.6331C44.5045 60.2365 44.2689 59.6664 44.2738 58.9723C44.2787 57.6834 44.2689 56.3944 44.2787 55.1054C44.2787 54.8823 44.21 54.8278 43.9989 54.8327C43.3363 54.8476 42.6736 54.8476 42.011 54.8327C41.7803 54.8278 41.7017 54.8823 41.7067 55.1302C41.7214 56.4093 41.7067 57.6883 41.7165 58.9723C41.7214 59.6416 41.5054 60.2118 40.9557 60.5984C40.7151 60.767 40.4206 60.8662 40.1507 60.9951C39.9396 61 39.7236 61 39.5126 61Z" fill="#2E353F"/>
<path d="M47.1942 32.8109C47.3758 32.92 47.5329 33.0142 47.6949 33.1133C49.241 34.0503 50.3552 35.3591 51.0375 37.0398C51.3615 37.833 51.4891 38.6758 51.5284 39.5285C51.5333 39.6574 51.4842 39.7119 51.3566 39.707C51.2829 39.702 51.2093 39.707 51.1357 39.707C45.6873 39.707 40.2438 39.707 34.7955 39.707C34.4568 39.707 34.447 39.707 34.4617 39.3748C34.5402 37.5603 35.2323 35.9987 36.4202 34.6552C37.0485 33.9462 37.7847 33.3811 38.6142 32.9349C38.7615 32.8556 38.7959 32.7911 38.7026 32.6325C38.3148 31.9334 37.9467 31.2245 37.5737 30.5205C37.5393 30.4561 37.4804 30.3817 37.4853 30.3222C37.5 30.2131 37.5344 30.0644 37.608 30.0247C37.6816 29.9851 37.8682 30.0297 37.9123 30.0991C38.0989 30.3767 38.251 30.6792 38.413 30.9766C38.6781 31.4625 38.9431 31.9433 39.1984 32.4292C39.272 32.568 39.3456 32.573 39.4683 32.5184C41.1617 31.7996 42.914 31.6409 44.7105 31.9731C45.3143 32.0871 45.9033 32.3102 46.4923 32.5085C46.6641 32.568 46.7328 32.5432 46.8162 32.3895C47.1795 31.7004 47.5574 31.0113 47.9305 30.3272C47.9746 30.2478 48.0041 30.1437 48.0728 30.0991C48.1612 30.0396 48.2937 29.99 48.3869 30.0148C48.5244 30.0545 48.5833 30.1884 48.5097 30.3371C48.3477 30.6593 48.1759 30.9816 48.009 31.2989C47.7439 31.7897 47.4789 32.2805 47.1942 32.8109ZM39.8119 35.85C39.807 35.4533 39.4732 35.1261 39.0904 35.1361C38.7075 35.146 38.4081 35.4682 38.413 35.8648C38.4179 36.2565 38.7321 36.5837 39.1051 36.5837C39.4929 36.5787 39.8168 36.2466 39.8119 35.85ZM46.1831 35.8252C46.1634 36.2168 46.4677 36.5539 46.8653 36.5787C47.2335 36.5986 47.5623 36.2862 47.582 35.8896C47.6016 35.493 47.3169 35.1658 46.9291 35.1361C46.5512 35.1113 46.2076 35.4286 46.1831 35.8252Z" fill="#2E353F"/>
<path d="M52.2107 45.914C52.2107 44.625 52.2107 43.336 52.2107 42.0471C52.2107 41.4075 52.412 40.8671 52.9225 40.4408C53.7765 39.7269 55.1853 39.9748 55.735 40.9465C55.9264 41.2836 55.9902 41.6405 55.9902 42.0124C55.9952 44.6201 55.9804 47.2327 55.9952 49.8404C56.005 51.293 54.6895 52.1904 53.4329 51.7243C52.7212 51.4616 52.2942 50.9113 52.2353 50.1478C52.1813 49.4637 52.2107 48.7795 52.2058 48.0904C52.2058 47.3666 52.2107 46.6378 52.2107 45.914Z" fill="#2E353F"/>
<path d="M33.7844 45.9586C33.7844 47.2377 33.7844 48.5167 33.7844 49.8008C33.7844 50.6188 33.4899 51.2831 32.7438 51.65C31.5069 52.2647 30.1767 51.4269 30.0344 50.2271C30.0098 50.009 30.0049 49.7809 30.0049 49.5578C30.0049 47.0741 30.0049 44.5853 30 42.1016C30 41.5562 30.1276 41.0704 30.4958 40.644C31.2173 39.8112 32.6162 39.826 33.3132 40.6738C33.6519 41.0853 33.7844 41.5463 33.7844 42.0669C33.7844 43.3658 33.7844 44.6597 33.7844 45.9586Z" fill="#2E353F"/>
</g>
<rect x="43.1387" y="2.21287" width="57.8905" height="57.8905" rx="10.5" transform="rotate(45 43.1387 2.21287)" stroke="#2E353F" stroke-width="3"/>
<defs>
<clipPath id="clip0">
<rect width="26" height="31" fill="white" transform="translate(30 30)"/>
</clipPath>
</defs>
</svg>
