<svg width="88" height="87" viewBox="0 0 88 87" fill="none" xmlns="http://www.w3.org/2000/svg">
<rect x="43.9927" y="2.12132" width="57.8905" height="57.8905" rx="10.5" transform="rotate(45 43.9927 2.12132)" stroke="#2E353F" stroke-width="3"/>
<g clip-path="url(#clip0)">
<path d="M45.3766 39.5275C42.9418 39.502 40.097 39.1568 37.4444 37.9166C36.6114 37.5202 35.8041 36.996 35.1249 36.3695C33.7794 35.1166 33.8178 33.5184 35.1249 32.2143C36.1885 31.1531 37.5213 30.5266 38.9437 30.1175C43.9286 28.6472 48.875 28.6727 53.7702 30.4116C54.9876 30.8463 56.1025 31.4727 56.9611 32.4572C57.9734 33.6079 57.9991 34.9248 57.0123 36.0883C55.8846 37.4307 54.3213 38.07 52.7066 38.5814C50.4897 39.2974 48.183 39.5403 45.3766 39.5275Z" fill="#2E353F"/>
<path d="M62.113 46.2653C61.8951 48.9886 61.2544 51.9676 59.1528 54.3968C58.3583 55.3173 57.3203 56.0333 56.372 56.8132C55.9748 57.1457 55.5775 57.0945 55.1418 56.826C52.3739 55.1256 50.7079 52.6324 49.9647 49.5256C49.6571 48.247 49.5674 46.9301 49.388 45.626C49.3112 45.0379 49.5546 44.795 50.1569 44.6288C50.9771 44.3986 51.7588 43.9767 52.5404 43.5931C53.399 43.1584 54.1935 42.6087 55.0649 42.2379C55.4622 42.0717 56.0645 42.0589 56.4489 42.2379C57.4869 42.7237 58.448 43.363 59.4603 43.9C59.9986 44.1813 60.5752 44.4498 61.1519 44.616C62.1642 44.8717 62.1771 44.8333 62.113 46.2653Z" fill="#2E353F"/>
<path d="M57.7047 36.5867C57.7047 37.7118 57.7047 38.952 57.7047 40.2049C57.0383 40.0771 56.4232 39.8853 55.8081 39.8469C54.7189 39.783 53.7962 40.3456 52.8864 40.8442C52.2456 41.1894 51.6562 41.6113 51.0282 41.9565C50.6438 42.1739 50.2337 42.3912 49.798 42.4679C48.3884 42.7237 47.4914 43.478 47.1582 45.0378C45.8127 44.9739 44.4543 44.9739 43.1088 44.846C41.1738 44.667 39.2772 44.2451 37.5088 43.4141C36.8168 43.0944 36.1633 42.6725 35.5482 42.225C34.5871 41.509 34.0745 40.5629 34.1514 39.31C34.2026 38.4405 34.1642 37.5711 34.1642 36.6378C36.3042 39.7702 39.6232 40.3711 42.955 40.8186C46.3253 41.2789 49.6827 41.0104 52.9504 39.9748C54.3216 39.5401 55.6287 38.9775 56.6667 37.9291C57.0768 37.5072 57.3843 36.9958 57.7047 36.5867Z" fill="#2E353F"/>
<path d="M50.2722 55.522C49.5674 55.6115 48.837 55.7393 48.1065 55.7905C44.6337 56.0334 41.1994 55.8288 37.9445 54.4736C37.0731 54.1156 36.2402 53.6042 35.4713 53.0416C34.5743 52.3896 34.0873 51.469 34.1514 50.2928C34.2026 49.385 34.1642 48.4645 34.1642 47.48C35.8685 50.2033 38.6109 50.8809 41.3788 51.4818C43.5189 51.9421 45.6974 51.9165 47.8759 51.8654C48.0809 51.8654 48.3884 51.9677 48.4653 52.1211C49.0804 53.195 49.6443 54.3202 50.2722 55.522Z" fill="#2E353F"/>
<path d="M47.1712 46.4186C47.389 47.7483 47.6069 49.0141 47.8375 50.3565C47.5043 50.3821 47.1199 50.4333 46.7483 50.4333C43.6343 50.4844 40.5588 50.2031 37.6883 48.9118C36.7144 48.4771 35.843 47.7995 35.0101 47.1218C34.395 46.6232 34.1515 45.8817 34.1643 45.0634C34.1899 44.0661 34.1643 43.0689 34.1643 41.9565C35.5995 44.4753 38.0215 45.2296 40.4819 45.8433C42.6604 46.3931 44.903 46.5081 47.1712 46.4186Z" fill="#2E353F"/>
</g>
<defs>
<clipPath id="clip0">
<rect width="28" height="28" fill="white" transform="translate(34.1387 29.0562)"/>
</clipPath>
</defs>
</svg>
