<svg width="88" height="87" viewBox="0 0 88 87" fill="none" xmlns="http://www.w3.org/2000/svg">
<path d="M55.0163 51.3739C54.8212 51.7966 54.6099 52.2192 54.3986 52.6256C54.3823 52.6744 54.2685 52.7232 54.2198 52.7069C53.7971 52.6419 53.3582 52.6256 52.9843 52.4793C48.5627 50.805 45.3278 47.7976 43.1657 43.6199C42.1578 41.6854 41.5726 39.6209 41.3451 37.4589C41.15 35.5894 42.2716 34.0288 44.0923 33.6875C45.9455 33.3461 47.7661 34.7279 47.9287 36.6135C48.3026 40.8076 51.1149 44.5789 55.0163 46.1558C55.2601 46.2533 55.569 46.3021 55.699 46.4809C55.8128 46.6597 55.7316 46.9686 55.7316 47.2124C55.7316 47.3912 55.7316 47.57 55.7316 47.7976C55.5365 47.7326 55.3739 47.6676 55.1951 47.6026C51.3262 46.1395 48.6927 43.4735 47.2785 39.5884C46.9533 38.7106 46.7745 37.8002 46.6933 36.8574C46.5957 35.7682 45.8642 35.0205 44.8076 34.9067C43.881 34.8091 42.9706 35.4269 42.678 36.3372C42.5155 36.8574 42.5968 37.3613 42.678 37.8652C43.5884 43.4898 46.5632 47.6676 51.5213 50.4311C52.139 50.7725 52.8055 51.0326 53.472 51.3089C53.9597 51.5365 54.4636 51.504 55.0163 51.3739Z" fill="#2E353F"/>
<path d="M55.6828 45.2292C55.1138 44.9204 54.5123 44.6603 53.9759 44.3026C51.4725 42.6608 49.7981 40.4012 49.1154 37.4589C49.0016 36.9712 49.0016 36.4673 48.8715 35.9796C48.4489 34.224 47.3272 33.1348 45.5878 32.7447C43.8484 32.3545 42.3854 32.891 41.2475 34.2727C40.6948 34.9392 40.3209 35.687 40.2884 36.5648C40.2721 37.0037 40.3534 37.4589 40.4184 37.8978C40.5972 39.052 40.711 40.2224 40.581 41.3928C40.3534 43.5874 39.1667 45.0342 37.151 45.8307C36.0618 46.2534 34.9239 46.4159 33.7698 46.5297C33.7535 46.5297 33.721 46.5297 33.6885 46.5135C33.6885 46.1071 33.6885 45.7007 33.6885 45.278C34.1436 45.213 34.5988 45.148 35.054 45.0667C35.7692 44.9366 36.4682 44.7578 37.1347 44.4327C38.4027 43.8312 39.1017 42.8234 39.2805 41.4579C39.4431 40.2712 39.3781 39.0845 39.1017 37.9303C38.3864 34.8254 40.9549 31.6393 44.141 31.3954C47.2784 31.1516 49.8956 33.3461 50.2208 36.4835C50.3833 38.0604 51.0498 39.4584 51.9601 40.7263C52.9192 42.0431 54.1222 43.0835 55.5852 43.7987C55.6502 43.8312 55.7153 43.9125 55.7153 43.9775C55.7315 44.3839 55.7153 44.7741 55.7153 45.1805C55.7153 45.1805 55.699 45.213 55.6828 45.2292Z" fill="#2E353F"/>
<path d="M55.6828 42.2544C55.2926 41.9618 54.8862 41.7017 54.5286 41.3929C53.1631 40.2224 52.2202 38.7919 51.8464 37.02C51.7163 36.4348 51.6838 35.8333 51.5375 35.2481C50.8222 32.3871 48.3026 30.2576 45.3765 29.9812C41.7027 29.6398 38.4027 32.062 37.6712 35.6708C37.5086 36.4836 37.5574 37.2964 37.7037 38.1092C37.8663 39.0195 37.915 39.9461 37.8012 40.8727C37.6224 42.2219 36.8096 43.0347 35.5742 43.4574C34.9727 43.6524 34.3387 43.7337 33.6885 43.8638C33.6885 43.3924 33.6885 42.986 33.6885 42.547C33.9973 42.4983 34.3062 42.4658 34.6151 42.4007C35.2653 42.2869 35.8505 42.0431 36.2732 41.4904C36.5658 41.1165 36.6308 40.6614 36.6145 40.2224C36.5983 39.556 36.582 38.8732 36.4357 38.2067C36.0456 36.2235 36.4195 34.3866 37.4924 32.7122C39.183 30.0462 41.6376 28.6482 44.8075 28.6807C48.8878 28.7132 52.4478 31.8344 52.9355 35.8821C53.1793 37.8816 54.0734 39.4259 55.6177 40.6614C55.6665 40.7101 55.7315 40.7914 55.7315 40.8564C55.7478 41.3116 55.7315 41.7505 55.7315 42.2057C55.7153 42.2057 55.699 42.2382 55.6828 42.2544Z" fill="#2E353F"/>
<path d="M33.6722 41.1164C33.6722 40.8238 33.6722 40.5637 33.6722 40.3036C33.6722 39.2632 33.6722 38.2066 33.6722 37.1662C33.6885 31.8017 37.5737 27.2175 42.8568 26.3397C48.8553 25.3319 54.4961 29.3146 55.569 35.2967C55.7315 36.2233 55.7315 37.1499 55.7315 38.0928C55.7315 38.4341 55.7315 38.7918 55.7315 39.1982C55.1626 38.3854 54.6424 37.6213 54.5774 36.6297C54.3173 32.5983 51.6513 29.1195 47.8312 27.8028C42.0766 25.8195 36.3057 29.4121 35.0703 34.9716C34.9402 35.5894 34.9077 36.2558 34.8752 36.9061C34.8427 37.7514 34.8752 38.5967 34.8752 39.4258C34.8752 40.1898 34.5013 40.7262 33.8185 41.0676C33.786 41.0839 33.7535 41.1001 33.6722 41.1164Z" fill="#2E353F"/>
<path d="M53.7483 53.7473C53.4395 54.1212 53.1794 54.4625 52.8868 54.7877C52.838 54.8364 52.7079 54.8202 52.6267 54.7877C51.7976 54.4463 50.936 54.1537 50.1395 53.731C49.1641 53.2108 48.2213 52.6256 47.311 51.9916C46.0268 51.1138 44.3524 51.0163 43.0682 51.8616C41.28 53.032 39.313 53.7473 37.2323 54.1699C36.9234 54.235 36.6146 54.2837 36.2894 54.3325C36.2244 54.3487 36.1269 54.3325 36.0944 54.2837C35.9481 54.1049 35.818 53.9261 35.6717 53.7473C35.5579 53.5847 35.4441 53.4059 35.3141 53.2108C35.6717 53.1458 36.0131 53.097 36.3382 53.0483C38.5003 52.6906 40.5485 52.0079 42.4017 50.8049C44.1411 49.6833 46.3519 49.7971 48.0425 51.0163C49.4893 52.0567 51.0173 52.9345 52.7079 53.5197C52.8705 53.5685 53.0331 53.6172 53.1956 53.666C53.3744 53.666 53.5207 53.6985 53.7483 53.7473Z" fill="#2E353F"/>
<path d="M55.6341 49.0328C55.569 49.3417 55.4878 49.683 55.4227 50.0244C55.4065 50.1545 55.3577 50.2195 55.2114 50.187C54.7725 50.1057 54.2848 50.1057 53.8784 49.9431C48.709 47.8461 45.5229 44.0422 44.2549 38.629C44.1411 38.1251 44.0761 37.6049 44.0273 37.0847C43.9786 36.6783 44.2224 36.3857 44.58 36.3532C44.9539 36.3207 45.2303 36.5482 45.279 36.9546C45.5229 39.4255 46.4007 41.6689 47.8312 43.6846C49.4893 46.0092 51.6026 47.7486 54.2848 48.7564C54.6912 48.9027 55.1464 48.9353 55.6341 49.0328Z" fill="#2E353F"/>
<path d="M51.6675 55.9741C51.2448 56.2667 50.8709 56.5268 50.4808 56.7869C50.432 56.8194 50.302 56.7869 50.237 56.7544C48.6764 56.0879 47.2296 55.2751 45.8641 54.2835C45.2789 53.8608 44.9375 53.8446 44.3198 54.251C42.6129 55.3564 40.7598 56.0879 38.7928 56.5756C38.7115 56.5918 38.5977 56.5918 38.5327 56.5431C38.1263 56.2505 37.7362 55.9578 37.2972 55.6165C37.4923 55.5677 37.6386 55.5352 37.7687 55.5027C39.9307 55.0313 41.979 54.2835 43.8484 53.048C44.6449 52.5278 45.5553 52.5278 46.3355 53.0805C47.9936 54.251 49.7168 55.2426 51.6675 55.9741Z" fill="#2E353F"/>
<path d="M34.0948 50.4475C34.5175 50.3825 34.8914 50.3337 35.2653 50.2849C36.6958 50.0899 38.1101 49.8623 39.4593 49.3421C40.8248 48.8057 41.979 47.9929 42.8731 46.8224C43.1169 46.4973 43.4908 46.4323 43.7834 46.6436C44.0922 46.8712 44.1248 47.2613 43.8809 47.5865C42.743 49.1145 41.2149 50.1061 39.4268 50.7076C38.0938 51.1628 36.6958 51.3903 35.2978 51.5692C35.1352 51.5854 34.9564 51.5854 34.8101 51.6342C34.5988 51.6992 34.5012 51.6342 34.4362 51.4229C34.3387 51.114 34.2249 50.8214 34.0948 50.4475Z" fill="#2E353F"/>
<path d="M33.786 49.1145C33.7373 48.6594 33.7048 48.253 33.6722 47.8628C34.4525 47.749 35.184 47.6515 35.9318 47.5052C37.1998 47.2614 38.4352 46.8875 39.5244 46.156C40.2396 45.6845 40.8249 45.0831 41.28 44.3678C41.4751 44.0589 41.784 43.9452 42.0766 44.0752C42.4667 44.2378 42.5967 44.6604 42.3529 45.0343C41.7514 45.9934 40.9549 46.7574 39.9958 47.3589C38.7766 48.1067 37.4274 48.5131 36.0294 48.7732C35.2978 48.9195 34.5663 49.0007 33.786 49.1145Z" fill="#2E353F"/>
<path d="M40.5485 57.5673C40.8248 57.4698 41.1012 57.3885 41.3775 57.2747C42.1903 56.9171 43.0031 56.592 43.7997 56.2018C44.6612 55.7792 45.474 55.8117 46.2868 56.2994C47.0671 56.7708 47.8799 57.2097 48.6927 57.6811C48.4651 57.7624 48.2538 57.8437 48.0262 57.9087C47.0183 58.2338 47.0183 58.2338 46.1243 57.6811C45.9292 57.5673 45.7504 57.4535 45.5553 57.3397C45.1814 57.1122 44.8238 57.1122 44.4337 57.291C43.8484 57.5836 43.247 57.8599 42.6455 58.1363C42.5642 58.1688 42.4342 58.2013 42.3366 58.1688C41.7352 58.0062 41.1337 57.8274 40.5322 57.6486C40.5485 57.6161 40.5485 57.5998 40.5485 57.5673Z" fill="#2E353F"/>
<rect x="43.9456" y="2.12132" width="57.8905" height="57.8905" rx="10.5" transform="rotate(45 43.9456 2.12132)" stroke="#2E353F" stroke-width="3"/>
</svg>
