<svg width="88" height="87" viewBox="0 0 88 87" fill="none" xmlns="http://www.w3.org/2000/svg">
<rect x="43.9456" y="2.12132" width="57.8905" height="57.8905" rx="10.5" transform="rotate(45 43.9456 2.12132)" stroke="#2E353F" stroke-width="3"/>
<g clip-path="url(#clip0)">
<path d="M31 46.8112C31.8654 45.2142 32.6831 43.5964 33.5963 42.0303C35.7519 38.3348 37.9394 34.66 40.1321 30.9903C41.4542 28.7885 43.6894 27.9719 45.7919 29.047C46.583 29.4501 47.3316 30.1685 47.7882 30.9232C50.6712 35.6524 53.4693 40.4229 56.2779 45.1935C56.5752 45.7 56.7611 46.2737 56.9947 46.8164C56.9947 47.2764 56.9947 47.7416 56.9947 48.2016C55.7788 50.9978 54.8497 51.587 51.6641 51.587C46.5512 51.587 41.4435 51.587 36.3306 51.587C33.145 51.5766 32.2158 50.9874 31 48.1964C31 47.7312 31 47.2712 31 46.8112ZM44.0292 50.3982C46.806 50.3982 49.5775 50.4086 52.3543 50.393C55.2745 50.3775 56.6124 48.1396 55.163 45.6638C52.3968 40.9501 49.6094 36.2468 46.8007 31.5537C45.3672 29.1607 42.6541 29.14 41.2312 31.5175C38.4013 36.2364 35.6032 40.9656 32.8211 45.7103C31.4035 48.1292 32.7521 50.3672 35.6085 50.3879C38.4119 50.4086 41.2205 50.3982 44.0292 50.3982Z" fill="#2E353F"/>
<path d="M44.0078 49.7059C41.3372 49.7059 38.6666 49.7059 35.996 49.7059C34.7907 49.7059 33.6864 49.3803 33.3201 48.1863C33.1183 47.5351 33.1502 46.6151 33.4793 46.0362C36.1977 41.3018 38.9852 36.6036 41.8044 31.9261C42.8769 30.1533 45.1122 30.1429 46.1794 31.9158C49.0039 36.5881 51.7914 41.2863 54.531 46.0104C55.6141 47.8762 54.4142 49.6594 52.1152 49.6955C49.4181 49.7369 46.7103 49.7059 44.0078 49.7059ZM42.4946 38.6142H42.5C42.5 39.4722 42.4469 40.3301 42.5159 41.1778C42.5849 42.0461 43.2698 42.6405 44.0503 42.5733C44.8945 42.5009 45.4626 42.0254 45.4891 41.1829C45.5369 39.5394 45.5422 37.8906 45.4998 36.247C45.4785 35.3632 44.9051 34.8618 44.0078 34.805C43.2273 34.7585 42.5796 35.3683 42.5106 36.2418C42.4416 37.0326 42.4946 37.8286 42.4946 38.6142ZM45.5528 45.5038C45.5741 44.6872 44.8839 44.005 44.0291 43.9895C43.1636 43.974 42.4681 44.6149 42.4469 45.447C42.4309 46.2429 43.1477 46.9717 43.9653 46.9872C44.783 47.0027 45.5369 46.2946 45.5528 45.5038Z" fill="#2E353F"/>
</g>
<defs>
<clipPath id="clip0">
<rect width="26" height="23" fill="white" transform="translate(31 28.5767)"/>
</clipPath>
</defs>
</svg>
