<svg width="87" height="87" viewBox="0 0 87 87" fill="none" xmlns="http://www.w3.org/2000/svg">
<g clip-path="url(#clip0)">
<path d="M34.0228 36.8332C34.0228 36.6582 34.0228 36.5082 34.0228 36.3582C34.0228 35.4332 34.0228 34.5082 34.0228 33.6082C34.0228 33.5082 33.9735 33.3832 33.8996 33.3332C33.3574 32.8832 32.7906 32.4332 32.2238 32.0082C32.1253 32.0582 32.0267 32.1082 31.9281 32.1582C31.2627 32.4832 30.5727 32.3082 30.0306 31.6832C29.6363 31.2332 29.6116 30.4332 29.9566 29.8832C30.3509 29.2832 31.0656 29.0082 31.731 29.2332C32.5688 29.5332 33.0371 30.4582 32.692 31.3082C32.6181 31.5082 32.6428 31.6082 32.8153 31.7332C33.3328 32.1332 33.8503 32.5582 34.3924 32.9582C34.5896 33.1082 34.6389 33.2582 34.6389 33.4832C34.6142 34.4832 34.6389 35.4832 34.6142 36.4832C34.6142 36.6082 34.6389 36.7082 34.6389 36.8582C35.526 36.8582 36.3885 36.8582 37.2757 36.8582C37.2757 36.7582 37.3003 36.6832 37.3003 36.5832C37.3003 35.1832 37.3003 33.8082 37.3003 32.4082C37.3003 32.2332 37.2264 32.0332 37.1278 31.8832C36.5857 31.0832 36.0189 30.2832 35.4275 29.4582C35.6985 29.0332 36.0189 28.6082 36.2653 28.1332C36.3639 27.9332 36.3393 27.6332 36.3639 27.3832C36.3639 27.3332 36.2407 27.2832 36.1668 27.2332C35.3535 26.9082 34.9592 26.0832 35.2057 25.2582C35.4521 24.4582 36.2407 24.0332 37.0539 24.2082C37.67 24.3582 38.1629 24.9332 38.2368 25.5832C38.3107 26.2832 37.9411 26.9332 37.3003 27.1832C37.0293 27.2832 36.9307 27.4082 36.98 27.6832C37.0786 28.2332 36.6843 28.5832 36.4378 28.9832C36.1668 29.4082 36.1421 29.4082 36.4378 29.8332C36.8568 30.4332 37.3003 31.0582 37.7193 31.6582C37.8179 31.7832 37.8671 31.9582 37.8671 32.1332C37.8671 33.5582 37.8671 34.9832 37.8671 36.4332C37.8671 36.5582 37.8671 36.6582 37.8671 36.8082C38.5572 36.8082 39.2225 36.8082 39.9372 36.8082C39.9372 36.6832 39.9372 36.5582 39.9372 36.4582C39.9372 34.0332 39.9372 31.6082 39.9372 29.2082C39.9372 28.9832 40.0111 28.8332 40.1836 28.6832C40.849 28.0832 41.4897 27.4832 42.1304 26.8582C42.229 26.7582 42.3029 26.5832 42.3029 26.4582C42.3276 26.1832 42.3029 25.9082 42.3029 25.6082C42.3029 25.4082 42.229 25.3332 42.0565 25.2582C41.4158 25.0082 41.0215 24.4082 41.0215 23.7582C41.0215 23.1082 41.4651 22.4832 42.0565 22.2832C42.7219 22.0582 43.3872 22.2582 43.8308 22.8082C44.4716 23.6332 44.1265 24.8332 43.1408 25.2332C42.9437 25.3082 42.8944 25.4082 42.8944 25.6082C42.8944 26.0582 43.0176 26.5582 42.8451 26.9332C42.6726 27.3082 42.229 27.5582 41.9086 27.8832C41.5144 28.2582 41.0954 28.6332 40.7011 29.0332C40.6272 29.1082 40.5533 29.2582 40.5533 29.3582C40.5533 31.8082 40.5533 34.2332 40.5533 36.6832C40.5533 36.7332 40.5533 36.7832 40.5779 36.8332C41.2679 36.8332 41.9086 36.8332 42.6233 36.8332C42.6233 36.7082 42.6233 36.5832 42.6233 36.4582C42.6233 34.5832 42.6233 32.7082 42.6233 30.8582C42.6233 30.6332 42.6972 30.5082 42.8697 30.4082C43.1408 30.2582 43.3872 30.0332 43.6583 29.8832C43.8308 29.7832 43.8555 29.6832 43.8062 29.5082C43.609 28.7082 44.0033 27.9332 44.718 27.6332C45.4326 27.3332 46.2705 27.6332 46.6402 28.3082C47.0098 28.9582 46.8866 29.7582 46.3444 30.2832C45.8269 30.7832 45.0137 30.8332 44.4223 30.4082C44.2498 30.2832 44.1265 30.3332 43.954 30.4082C43.3133 30.7082 43.1901 31.1832 43.2147 31.8582C43.264 33.4332 43.2394 35.0082 43.2394 36.5582C43.2394 36.6582 43.2394 36.7332 43.2394 36.8332C44.6194 36.8332 45.9748 36.8332 47.3795 36.8332C47.3795 36.7082 47.4041 36.6082 47.4041 36.4832C47.4041 35.2332 47.4288 34.0082 47.4041 32.7582C47.3795 32.1332 47.7245 31.7332 48.0202 31.2832C48.3406 30.8332 48.6856 30.3582 49.0059 29.9082C49.1045 29.7832 49.1291 29.6582 49.0059 29.5082C48.8334 29.3082 48.7348 29.0582 48.5623 28.8582C48.3159 28.5582 48.2913 28.2082 48.3159 27.8582C48.3406 27.6832 48.2666 27.5832 48.0941 27.5082C47.3548 27.2582 46.9605 26.5332 47.0591 25.7832C47.1823 25.0082 47.7738 24.4832 48.5377 24.4332C49.2524 24.4082 49.9177 24.9082 50.1149 25.6332C50.312 26.3582 49.9424 27.1082 49.2524 27.4582C49.1291 27.5082 48.9566 27.5832 48.932 27.6582C48.9074 27.8832 48.8827 28.1332 48.9813 28.3332C49.2031 28.7582 49.4741 29.1582 49.7452 29.5332C49.8438 29.6582 49.8438 29.7582 49.7452 29.8582C49.1784 30.6332 48.6116 31.4332 48.0695 32.2082C48.0202 32.2832 47.9955 32.3832 47.9955 32.4582C47.9955 33.9082 47.9955 35.3332 47.9955 36.8082C48.9074 36.8082 49.7699 36.8082 50.657 36.8082C50.657 36.5082 50.657 36.2332 50.657 35.9332C50.657 35.1582 50.657 34.3832 50.657 33.6332C50.657 33.5082 50.731 33.3332 50.8542 33.2332C51.347 32.8082 51.8645 32.4082 52.3821 32.0082C52.4806 31.9332 52.5546 31.8582 52.6531 31.7832C52.3821 31.2582 52.3574 30.7332 52.6285 30.2082C53.0228 29.4582 53.9592 29.1582 54.7232 29.5832C55.4871 29.9832 55.7582 30.9082 55.3885 31.6832C55.0189 32.4332 54.0824 32.7832 53.3431 32.3832C53.0967 32.2582 52.9489 32.2832 52.7517 32.4582C52.3081 32.8332 51.8399 33.1832 51.3963 33.5332C51.3224 33.5832 51.2238 33.7082 51.2238 33.7832C51.2238 34.7832 51.2238 35.7832 51.2238 36.8332C51.5195 36.8332 51.7906 36.8332 52.0617 36.8332C53.2446 36.8332 54.4521 36.8332 55.635 36.8332C57.36 36.8332 58.5429 38.0082 58.5429 39.7332C58.5429 44.4832 58.5429 49.2332 58.5429 53.9832C58.5429 55.6832 57.3847 56.8582 55.6843 56.8582C50.8295 56.8582 45.9748 56.8582 41.0954 56.8582C37.6454 56.8582 34.1953 56.8582 30.7452 56.8582C30.2277 56.8582 29.7348 56.8332 29.2666 56.5832C28.207 56.0332 27.6895 55.1582 27.6895 53.9582C27.6895 51.0082 27.6895 48.0582 27.6895 45.1082C27.6895 43.3332 27.6895 41.5582 27.6895 39.8082C27.6895 37.9832 28.823 36.8332 30.622 36.8082C31.731 36.8332 32.8399 36.8332 34.0228 36.8332ZM43.2394 38.8582C43.2147 38.9082 43.2147 38.9332 43.2147 38.9582C43.2147 41.1082 43.2147 43.2582 43.2147 45.4082C43.2147 45.4832 43.264 45.5832 43.3133 45.6332C43.609 45.8332 43.9048 46.0332 44.2005 46.2332C44.2744 46.1582 44.3483 46.1082 44.4223 46.0582C45.0876 45.6082 45.9748 45.7332 46.4923 46.3582C46.9605 46.9332 46.9852 47.7832 46.5416 48.3582C46.0734 48.9582 45.3094 49.1332 44.6194 48.8082C43.954 48.4832 43.609 47.7332 43.8062 47.0082C43.8555 46.8332 43.8308 46.7082 43.6583 46.6082C43.3872 46.4582 43.1655 46.2332 42.8944 46.1082C42.6726 45.9832 42.6233 45.8332 42.6233 45.5832C42.6233 43.4832 42.6233 41.3832 42.6233 39.2832C42.6233 39.1582 42.6233 39.0332 42.6233 38.8832C41.9333 38.8832 41.2679 38.8832 40.5779 38.8832C40.5779 38.9582 40.5533 39.0082 40.5533 39.0832C40.5533 41.7582 40.5533 44.4332 40.5533 47.1332C40.5533 47.2582 40.6518 47.4082 40.7258 47.5082C41.3665 48.1332 42.0319 48.7582 42.6972 49.3582C42.8451 49.4832 42.919 49.6332 42.8944 49.8332C42.8697 50.1832 42.8944 50.5082 42.8944 50.8582C42.8697 51.1082 42.9683 51.2082 43.1901 51.3082C43.9294 51.5832 44.3237 52.4332 44.0773 53.2082C43.8308 53.9832 43.0915 54.4582 42.3029 54.3082C41.5636 54.1582 41.0954 53.6082 41.0215 52.8582C40.9722 52.1832 41.3911 51.5082 42.0812 51.2582C42.229 51.2082 42.3029 51.1332 42.3029 50.9582C42.2783 50.6582 42.3029 50.3582 42.2783 50.0582C42.2783 49.9332 42.2044 49.7582 42.1058 49.6832C41.4651 49.0582 40.7997 48.4332 40.1343 47.8332C39.9865 47.6832 39.9125 47.5582 39.9125 47.3332C39.9125 44.9082 39.9125 42.4832 39.9125 40.0332C39.9125 39.6582 39.9125 39.2832 39.9125 38.9082C36.4132 38.9082 32.9631 38.9082 29.4884 38.9082C29.4884 44.2582 29.4884 49.5582 29.4884 54.8832C38.5572 54.8832 47.5766 54.8832 56.6207 54.8832C56.6207 49.5332 56.6207 44.2332 56.6207 38.9082C54.7971 38.9082 52.9735 38.9082 51.1745 38.9082C51.1499 38.9332 51.1499 38.9582 51.1499 38.9832C51.1499 40.2082 51.1499 41.4332 51.1499 42.6832C51.1499 42.7832 51.2238 42.8832 51.2978 42.9332C51.766 43.3082 52.2588 43.6832 52.7024 44.0582C52.8749 44.2082 52.9981 44.2332 53.2199 44.1082C53.9839 43.6832 54.9696 44.0582 55.3146 44.8832C55.6843 45.7332 55.2653 46.7082 54.4028 47.0082C53.5403 47.3082 52.6531 46.8082 52.4067 45.9332C52.2835 45.5082 52.3574 45.1082 52.5299 44.6832C51.9385 44.2082 51.347 43.7332 50.7556 43.2832C50.5831 43.1582 50.5092 43.0332 50.5338 42.8082C50.5338 41.6082 50.5338 40.4082 50.5338 39.2082C50.5338 39.1082 50.5338 38.9832 50.5338 38.8832C49.622 38.8832 48.7595 38.8832 47.8723 38.8832C47.8723 39.0082 47.8723 39.1082 47.8723 39.2082C47.8723 40.7332 47.8723 42.2582 47.8723 43.8082C47.8723 44.0582 47.9463 44.2332 48.0695 44.4332C48.587 45.1582 49.0799 45.8832 49.5974 46.6082C49.7206 46.7832 49.6959 46.8832 49.5974 47.0332C49.3509 47.3832 49.1045 47.7332 48.8827 48.1082C48.6363 48.4832 48.7595 48.9082 49.1538 49.0832C49.277 49.1332 49.4002 49.2082 49.4988 49.2832C50.1642 49.8582 50.2134 50.9332 49.5727 51.5832C48.9566 52.2332 47.8723 52.1832 47.3055 51.5082C46.7141 50.8082 46.8127 49.7332 47.5273 49.2082C47.7245 49.0582 47.9463 48.9832 48.1927 48.8332C47.9955 48.1832 48.3652 47.6832 48.7102 47.1832C48.7595 47.1082 48.8088 47.0082 48.8827 46.9332C48.9813 46.8082 48.9566 46.7332 48.8827 46.5832C48.3898 45.9082 47.9216 45.2332 47.4534 44.5582C47.3548 44.4082 47.2809 44.1832 47.2809 43.9832C47.2562 42.4082 47.2809 40.8332 47.2809 39.2332C47.2809 39.1082 47.2809 38.9832 47.2809 38.8332C45.9502 38.8582 44.6194 38.8582 43.2394 38.8582ZM36.7089 24.7832C36.1914 24.7832 35.7478 25.2082 35.7478 25.7582C35.7478 26.2832 36.1668 26.7332 36.6843 26.7332C37.2018 26.7332 37.6454 26.2832 37.67 25.7832C37.6454 25.2332 37.2264 24.7832 36.7089 24.7832ZM53.9592 30.0082C53.4417 30.0082 52.9981 30.4582 52.9981 30.9832C52.9981 31.5082 53.4417 31.9582 53.9592 31.9582C54.4767 31.9582 54.9203 31.4832 54.9203 30.9832C54.9203 30.4332 54.4767 30.0082 53.9592 30.0082ZM43.5598 23.7582C43.5598 23.2332 43.1162 22.7832 42.5987 22.7832C42.0812 22.7832 41.6376 23.2332 41.6376 23.7582C41.6376 24.2832 42.0812 24.7332 42.5987 24.7332C43.1408 24.7332 43.5598 24.2832 43.5598 23.7582ZM48.5131 49.4832C47.9463 49.4582 47.5766 49.9582 47.552 50.4582C47.552 51.0082 48.0202 51.4332 48.5377 51.4332C49.0306 51.4332 49.4741 50.9832 49.4741 50.4582C49.4988 49.9082 49.0552 49.4832 48.5131 49.4832ZM46.2459 29.0832C46.2459 28.5582 45.8269 28.1082 45.3094 28.1082C44.7919 28.1082 44.3483 28.5332 44.3483 29.0582C44.3483 29.5832 44.7673 30.0332 45.2848 30.0332C45.8023 30.0582 46.2212 29.6082 46.2459 29.0832ZM30.3263 30.7332C30.3263 31.2832 30.7452 31.6832 31.2874 31.6832C31.8295 31.6832 32.2485 31.2582 32.2485 30.7082C32.2485 30.1832 31.8049 29.7332 31.2874 29.7332C30.7452 29.7582 30.3016 30.1832 30.3263 30.7332ZM53.9592 46.4582C54.5014 46.4582 54.9203 46.0082 54.9203 45.4832C54.9203 44.9582 54.4767 44.5082 53.9592 44.5082C53.4664 44.5082 52.9981 44.9832 52.9981 45.4832C52.9981 46.0332 53.4417 46.4582 53.9592 46.4582ZM43.5598 52.6832C43.5598 52.1582 43.1162 51.7082 42.5987 51.7332C42.0812 51.7332 41.6376 52.2082 41.6376 52.7082C41.6622 53.2082 42.1058 53.6832 42.5987 53.6832C43.1408 53.6832 43.5844 53.2332 43.5598 52.6832ZM47.5766 26.0082C47.5766 26.5582 47.9955 26.9832 48.5131 26.9832C49.0306 26.9832 49.4741 26.5332 49.4741 26.0082C49.4741 25.4832 49.0552 25.0332 48.5131 25.0332C48.0202 25.0332 47.5766 25.4582 47.5766 26.0082ZM45.2848 48.3582C45.8023 48.3582 46.2459 47.9332 46.2459 47.3832C46.2459 46.8332 45.8269 46.4082 45.2848 46.4082C44.7673 46.4082 44.3237 46.8582 44.3237 47.3832C44.3237 47.9332 44.7673 48.3582 45.2848 48.3582Z" fill="black"/>
<path d="M24.0916 57.7832C24.2394 57.7832 24.338 57.7832 24.4366 57.7832C26.6298 57.7832 28.8231 57.7832 30.9917 57.7832C32.7167 57.7832 34.4171 57.7832 36.1421 57.7832C36.3886 57.7832 36.4871 57.8582 36.5364 58.0832C36.8321 59.2082 37.744 59.9332 38.9022 59.9332C41.6869 59.9332 44.4716 59.9332 47.2316 59.9332C48.4884 59.9332 49.3756 59.2332 49.696 57.9832C49.7206 57.9332 49.7206 57.8582 49.7452 57.8082C53.8607 57.8082 57.9515 57.8082 62.0916 57.8082C62.1162 58.5082 61.919 59.1332 61.5494 59.6832C60.884 60.6582 59.9476 61.1832 58.7647 61.1832C51.5442 61.1832 44.3484 61.1832 37.1279 61.1832C33.8996 61.1832 30.6713 61.1832 27.443 61.1832C25.8412 61.1832 24.4612 60.0332 24.1655 58.4332C24.1162 58.2332 24.1162 58.0332 24.0916 57.7832Z" fill="black"/>
<path d="M37.1526 57.833C41.1448 57.833 45.0877 57.833 49.0553 57.833C48.9321 58.433 48.6117 58.833 48.1189 59.058C47.8724 59.183 47.6014 59.233 47.3303 59.233C44.5209 59.258 41.7116 59.258 38.9023 59.233C38.1383 59.233 37.5715 58.858 37.2512 58.133C37.2019 58.058 37.1772 57.958 37.1526 57.833Z" fill="black"/>
<path d="M43.2395 38.8582C44.6196 38.8582 45.9503 38.8582 47.355 38.8582C47.355 39.0082 47.355 39.1332 47.355 39.2582C47.355 40.8332 47.355 42.4082 47.355 44.0082C47.355 44.2082 47.4289 44.4082 47.5275 44.5832C47.9957 45.2582 48.4639 45.9332 48.9568 46.6082C49.0554 46.7332 49.0554 46.8332 48.9568 46.9582C48.8829 47.0332 48.8582 47.1332 48.7843 47.2082C48.4146 47.7082 48.0696 48.2082 48.2668 48.8582C48.0203 48.9832 47.7739 49.0832 47.6014 49.2332C46.8868 49.7582 46.7882 50.8332 47.3796 51.5332C47.9464 52.2082 49.0307 52.2332 49.6468 51.6082C50.2629 50.9582 50.2382 49.8832 49.5729 49.3082C49.4743 49.2082 49.3511 49.1582 49.2279 49.1082C48.8336 48.9082 48.7104 48.5082 48.9568 48.1332C49.1786 47.7832 49.425 47.4082 49.6715 47.0582C49.77 46.9082 49.7947 46.8082 49.6715 46.6332C49.1539 45.9082 48.6611 45.1832 48.1436 44.4582C47.9957 44.2582 47.9464 44.0582 47.9464 43.8332C47.9464 42.3082 47.9464 40.7832 47.9464 39.2332C47.9464 39.1332 47.9464 39.0332 47.9464 38.9082C48.8336 38.9082 49.6961 38.9082 50.6079 38.9082C50.6079 39.0332 50.6079 39.1332 50.6079 39.2332C50.6079 40.4332 50.6079 41.6332 50.6079 42.8332C50.6079 43.0582 50.6818 43.1832 50.8297 43.3082C51.4211 43.7582 52.0126 44.2332 52.604 44.7082C52.4315 45.1332 52.3576 45.5082 52.4808 45.9582C52.7272 46.8332 53.6144 47.3332 54.4769 47.0332C55.3394 46.7332 55.7584 45.7582 55.3887 44.9082C55.0437 44.0832 54.058 43.7082 53.294 44.1332C53.0969 44.2582 52.949 44.2332 52.7765 44.0832C52.3083 43.6832 51.8401 43.3332 51.3718 42.9582C51.2979 42.9082 51.224 42.7832 51.224 42.7082C51.224 41.4832 51.224 40.2582 51.224 39.0082C51.224 38.9832 51.2486 38.9832 51.2486 38.9332C53.0476 38.9332 54.8465 38.9332 56.6948 38.9332C56.6948 44.2582 56.6948 49.5832 56.6948 54.9082C47.6507 54.9082 38.6312 54.9082 29.5625 54.9082C29.5625 49.5832 29.5625 44.2582 29.5625 38.9332C33.0372 38.9332 36.4873 38.9332 39.9866 38.9332C39.9866 39.3082 39.9866 39.6832 39.9866 40.0582C39.9866 42.4832 39.9866 44.9082 39.9866 47.3582C39.9866 47.5582 40.0606 47.7082 40.2084 47.8582C40.8738 48.4582 41.5392 49.0832 42.1799 49.7082C42.2785 49.8082 42.3277 49.9582 42.3524 50.0832C42.377 50.3832 42.3524 50.6832 42.377 50.9832C42.377 51.1582 42.3277 51.2332 42.1552 51.2832C41.4652 51.5332 41.0463 52.1832 41.0956 52.8832C41.1695 53.6332 41.6624 54.1832 42.377 54.3332C43.141 54.4832 43.9049 54.0082 44.1513 53.2332C44.3731 52.4832 44.0035 51.6082 43.2642 51.3332C43.0178 51.2332 42.9438 51.1332 42.9685 50.8832C42.9931 50.5332 42.9685 50.2082 42.9685 49.8582C42.9685 49.6582 42.8945 49.5332 42.7713 49.3832C42.106 48.7832 41.4406 48.1582 40.7999 47.5332C40.7013 47.4332 40.6274 47.2832 40.6274 47.1582C40.6274 44.4832 40.6274 41.8082 40.6274 39.1082C40.6274 39.0582 40.6274 38.9832 40.652 38.9082C41.342 38.9082 42.0074 38.9082 42.6974 38.9082C42.6974 39.0582 42.6974 39.1832 42.6974 39.3082C42.6974 41.4082 42.6974 43.5082 42.6974 45.6082C42.6974 45.8582 42.7467 46.0082 42.9685 46.1332C43.2395 46.2832 43.4613 46.4832 43.7324 46.6332C43.9049 46.7332 43.9049 46.8332 43.8803 47.0332C43.6831 47.7832 44.0281 48.5332 44.6935 48.8332C45.3589 49.1582 46.1475 48.9832 46.6157 48.3832C47.0593 47.8082 47.0593 46.9832 46.5664 46.3832C46.0735 45.7832 45.1864 45.6582 44.4964 46.0832C44.4224 46.1332 44.3485 46.1832 44.2746 46.2582C43.9788 46.0582 43.6831 45.8582 43.3874 45.6582C43.3381 45.6082 43.2888 45.5082 43.2888 45.4332C43.2888 43.2832 43.2888 41.1332 43.2888 38.9832C43.2149 38.9332 43.2149 38.9082 43.2395 38.8582ZM37.2759 39.0082C37.2759 39.1332 37.2759 39.2332 37.2759 39.3332C37.2759 40.9082 37.2759 42.4832 37.2759 44.0582C37.2759 44.2332 37.2019 44.4332 37.1034 44.5832C36.5858 45.3332 36.0683 46.0582 35.5508 46.8082C35.4523 46.9582 35.4276 47.0582 35.5508 47.2332C35.8219 47.5832 36.093 47.9582 36.2901 48.3582C36.3887 48.5582 36.3887 48.8332 36.3641 49.0832C36.3641 49.1582 36.1423 49.2082 36.0437 49.2832C35.8219 49.4832 35.5262 49.6582 35.3783 49.9082C34.8855 50.6832 35.1812 51.7082 35.9451 52.1332C36.7583 52.5582 37.7441 52.2332 38.1137 51.3832C38.4834 50.5582 38.0644 49.5832 37.2266 49.2582C37.0294 49.1832 36.9309 49.1082 36.9801 48.9082C37.0541 48.4832 36.9062 48.1332 36.6351 47.8082C36.4873 47.6332 36.3887 47.4332 36.2408 47.2332C36.1423 47.1082 36.1669 47.0082 36.2655 46.8582C36.7583 46.1832 37.2266 45.5082 37.6948 44.8082C37.7934 44.6832 37.8427 44.4832 37.8427 44.3082C37.8427 42.6332 37.8427 40.9832 37.8427 39.3082C37.8427 39.2082 37.8427 39.1082 37.8427 39.0082C37.6702 39.0082 37.4976 39.0082 37.2759 39.0082ZM32.6183 44.9332C32.7415 44.8332 32.8401 44.7332 32.9633 44.6332C33.4561 44.2582 33.949 43.8582 34.4172 43.4582C34.5158 43.3832 34.5897 43.2082 34.5897 43.0582C34.6144 41.7832 34.5897 40.5082 34.5897 39.2582C34.5897 39.1582 34.5897 39.0832 34.5651 38.9832C34.3679 38.9832 34.1954 38.9832 33.9737 38.9832C33.9737 39.1082 33.9737 39.2332 33.9737 39.3582C33.9737 40.5082 33.9737 41.6332 33.9737 42.7832C33.9737 42.9832 33.8997 43.0832 33.7519 43.2082C33.3083 43.5582 32.8401 43.9082 32.3965 44.2832C32.224 44.4332 32.1008 44.4582 31.879 44.3332C31.115 43.9332 30.1786 44.2582 29.7843 45.0332C29.4393 45.7582 29.7104 46.6832 30.3511 47.0582C31.2136 47.5582 32.224 47.1582 32.569 46.4832C32.8893 45.9832 32.8893 45.4582 32.6183 44.9332Z" fill="white"/>
<path d="M36.709 24.7832C37.2265 24.7832 37.67 25.2332 37.67 25.7582C37.67 26.2832 37.2018 26.7332 36.6843 26.7082C36.1422 26.7082 35.7232 26.2582 35.7479 25.7332C35.7479 25.2082 36.1914 24.7832 36.709 24.7832Z" fill="white"/>
<path d="M53.9591 30.0081C54.4766 30.0081 54.9202 30.4581 54.9202 30.9831C54.9202 31.5081 54.4766 31.9581 53.9591 31.9581C53.4416 31.9581 52.998 31.5081 52.998 30.9831C52.998 30.4581 53.4416 30.0081 53.9591 30.0081Z" fill="white"/>
<path d="M43.5599 23.7582C43.5599 24.2832 43.1163 24.7332 42.5988 24.7332C42.0813 24.7332 41.6377 24.2832 41.6377 23.7582C41.6377 23.2332 42.0813 22.7832 42.5988 22.7832C43.1409 22.7832 43.5599 23.2332 43.5599 23.7582Z" fill="white"/>
<path d="M48.5131 49.4831C49.0552 49.4831 49.4988 49.9081 49.4988 50.4581C49.4988 50.9831 49.0799 51.4081 48.5623 51.4331C48.0202 51.4331 47.552 51.0081 47.5766 50.4581C47.5766 49.9581 47.9463 49.4581 48.5131 49.4831Z" fill="white"/>
<path d="M46.2459 29.0832C46.2459 29.6332 45.8023 30.0582 45.2848 30.0332C44.7673 30.0332 44.3237 29.5832 44.3484 29.0582C44.3484 28.5332 44.792 28.0832 45.3095 28.1082C45.827 28.1082 46.2459 28.5582 46.2459 29.0832Z" fill="white"/>
<path d="M30.3262 30.7331C30.3262 30.1831 30.7451 29.7581 31.2873 29.7581C31.8048 29.7581 32.2483 30.2081 32.2483 30.7331C32.2483 31.2831 31.8294 31.7081 31.2873 31.7081C30.7205 31.6831 30.3262 31.2831 30.3262 30.7331Z" fill="white"/>
<path d="M53.9591 46.4582C53.4416 46.4582 52.998 46.0332 52.998 45.5082C52.998 45.0082 53.4416 44.5332 53.9591 44.5332C54.4766 44.5332 54.9202 44.9832 54.9202 45.5082C54.9202 46.0082 54.5013 46.4332 53.9591 46.4582Z" fill="white"/>
<path d="M43.5598 52.6832C43.5598 53.2332 43.1162 53.6832 42.5741 53.6832C42.0812 53.6832 41.6376 53.2332 41.613 52.7082C41.5883 52.2082 42.0566 51.7332 42.5741 51.7332C43.1162 51.7082 43.5598 52.1582 43.5598 52.6832Z" fill="white"/>
<path d="M47.5767 26.0082C47.5767 25.4582 47.9956 25.0332 48.5377 25.0582C49.0799 25.0582 49.4988 25.5082 49.4988 26.0332C49.4988 26.5582 49.0553 27.0082 48.5377 27.0082C47.9956 26.9832 47.5767 26.5582 47.5767 26.0082Z" fill="white"/>
<path d="M45.2848 48.3582C44.7427 48.3582 44.3237 47.9332 44.3237 47.3832C44.3237 46.8582 44.7427 46.4082 45.2848 46.4082C45.827 46.4082 46.2459 46.8332 46.2459 47.3832C46.2459 47.9082 45.827 48.3582 45.2848 48.3582Z" fill="white"/>
<path d="M37.2758 39.0081C37.4976 39.0081 37.6701 39.0081 37.8673 39.0081C37.8673 39.1081 37.8673 39.2081 37.8673 39.3081C37.8673 40.9831 37.8673 42.6331 37.8673 44.3081C37.8673 44.4831 37.7934 44.6581 37.7194 44.8081C37.2512 45.5081 36.7583 46.1831 36.2901 46.8581C36.1915 46.9831 36.1669 47.0831 36.2655 47.2331C36.3887 47.4081 36.5119 47.6331 36.6598 47.8081C36.9308 48.1331 37.0541 48.4831 37.0048 48.9081C36.9801 49.1081 37.0541 49.1831 37.2512 49.2581C38.0891 49.5831 38.508 50.5581 38.1384 51.3831C37.7687 52.2331 36.783 52.5581 35.9698 52.1331C35.1812 51.7081 34.8854 50.6831 35.403 49.9081C35.5508 49.6581 35.8465 49.4831 36.0683 49.2831C36.1669 49.2081 36.3887 49.1581 36.3887 49.0831C36.4133 48.8331 36.4133 48.5581 36.3148 48.3581C36.1176 47.9581 35.8465 47.6081 35.5755 47.2331C35.4522 47.0831 35.4769 46.9581 35.5755 46.8081C36.093 46.0831 36.6351 45.3331 37.128 44.5831C37.2266 44.4331 37.3005 44.2331 37.3005 44.0581C37.3251 42.4831 37.3005 40.9081 37.3005 39.3331C37.2758 39.2331 37.2758 39.1081 37.2758 39.0081ZM36.6844 51.6581C37.2019 51.6581 37.6455 51.2331 37.6455 50.7081C37.6455 50.1831 37.2019 49.7331 36.6844 49.7331C36.1669 49.7331 35.7233 50.1581 35.7233 50.7081C35.7233 51.2081 36.1669 51.6581 36.6844 51.6581Z" fill="black"/>
<path d="M32.6182 44.9331C32.8892 45.4581 32.8892 45.9831 32.6428 46.5081C32.2978 47.1831 31.2874 47.5831 30.4249 47.0831C29.7842 46.7081 29.5131 45.7831 29.8581 45.0581C30.2524 44.2831 31.1642 43.9581 31.9528 44.3581C32.1746 44.4831 32.2978 44.4331 32.4703 44.3081C32.9139 43.9331 33.3575 43.5831 33.8257 43.2331C33.9735 43.1331 34.0475 43.0081 34.0475 42.8081C34.0475 41.6581 34.0475 40.5331 34.0475 39.3831C34.0475 39.2581 34.0475 39.1581 34.0475 39.0081C34.2693 39.0081 34.4418 39.0081 34.6389 39.0081C34.6389 39.1081 34.6636 39.2081 34.6636 39.2831C34.6636 40.5581 34.6636 41.8331 34.6636 43.0831C34.6636 43.2081 34.5896 43.3831 34.491 43.4831C34.0228 43.8831 33.5053 44.2581 33.0371 44.6581C32.8399 44.7331 32.7414 44.8331 32.6182 44.9331ZM30.3263 45.7581C30.3263 46.2831 30.7453 46.7331 31.2628 46.7331C31.7803 46.7331 32.2239 46.3081 32.2485 45.7831C32.2485 45.2581 31.8049 44.7831 31.2874 44.7831C30.7453 44.7581 30.3263 45.2081 30.3263 45.7581Z" fill="black"/>
<path d="M36.6842 51.658C36.1667 51.658 35.7231 51.208 35.7231 50.683C35.7478 50.158 36.1667 49.708 36.6842 49.708C37.2017 49.708 37.6453 50.158 37.6453 50.683C37.6453 51.233 37.2017 51.683 36.6842 51.658Z" fill="white"/>
<path d="M30.3262 45.7582C30.3262 45.2082 30.7451 44.7832 31.2626 44.7832C31.7801 44.7832 32.2484 45.2582 32.2237 45.7832C32.2237 46.3082 31.7801 46.7332 31.238 46.7332C30.7451 46.7082 30.3262 46.2582 30.3262 45.7582Z" fill="white"/>
</g>
<rect x="43.0562" y="2.12132" width="57.8905" height="57.8905" rx="10.5" transform="rotate(45 43.0562 2.12132)" stroke="#2E353F" stroke-width="3"/>
<defs>
<clipPath id="clip0">
<rect width="38" height="39" fill="white" transform="translate(24.0916 22.1831)"/>
</clipPath>
</defs>
</svg>
